<svg id="Layer_1" data-name="Layer 1" xmlns="http://www.w3.org/2000/svg" viewBox="0 0 120 120"><defs><style>.cls-1{fill:#c4995c;}</style></defs><title>web</title><circle class="cls-1" cx="79.62" cy="21.37" r="8.77"/><path class="cls-1" d="M112.51,63V42.42L90.36,33a9.37,9.37,0,0,0-11.62,3.69h0l-4.38,7a21.23,21.23,0,0,1-15,10.18l.26.26A17.53,17.53,0,0,0,70.46,59.3a31.45,31.45,0,0,0,9.16-7.19l2.63,13.15-5.08,4.82L73,74v32.88h8.77V80.56L91,71.8l7.89,35.07h9.21L98.56,58.64,95.85,45.05l7.89,3.07V63Z"/><path class="cls-1" d="M52.39,46.41a8.72,8.72,0,0,0,3.16,1.27,10.51,10.51,0,0,0,1.67.17,9,9,0,0,0,3.28-.65,8.42,8.42,0,0,0,2.9-1.93,8.8,8.8,0,0,0,2.41-7.9,8.52,8.52,0,0,0-2.41-4.51,9,9,0,0,0-2.9-1.93,6.44,6.44,0,0,0-1.62-.48,10.4,10.4,0,0,0-1.66-.18,10,10,0,0,0-1.54.13,8.56,8.56,0,0,0-1.8.49,10.47,10.47,0,0,0-2.85,2,8.52,8.52,0,0,0-2.41,4.51,9,9,0,0,0,3.77,9Z"/><path class="cls-1" d="M56.56,57.24l-8.77-8.77a11.1,11.1,0,0,0-1.36-1.14,8.47,8.47,0,0,0-3.16-1.23,7.21,7.21,0,0,0-1.66-.18,8.75,8.75,0,0,0-6.19,2.59L20.78,63.16a8.69,8.69,0,0,0-2.54,6.75,6.68,6.68,0,0,0,.48,2.41l4.69,12.94L7.49,101.17l6.19,6.23L32.27,88.81V79.07L38,84.38v22.49h8.77V80.56l-9.3-9.29L47.79,60.92,50.9,64h0A30.71,30.71,0,0,0,73,73l-.62-9.08A22.22,22.22,0,0,1,56.56,57.24Z"/></svg>