<svg id="Layer_1" data-name="Layer 1" xmlns="http://www.w3.org/2000/svg" xmlns:xlink="http://www.w3.org/1999/xlink" viewBox="0 0 800 200"><defs><style>.cls-1{fill:none;}.cls-2{fill:#404041;}.cls-3{fill:#3e3b3c;}.cls-4{fill:#5a595c;}.cls-5{clip-path:url(#clip-path);}.cls-6{opacity:0.08;}.cls-7{fill:#be8f4c;}.cls-8{opacity:0.07;}.cls-9{opacity:0.06;}.cls-10{opacity:0.05;}.cls-11{opacity:0.04;}.cls-12{opacity:0.03;}.cls-13{opacity:0.02;}.cls-14{opacity:0.01;}.cls-15{opacity:0;}.cls-16{opacity:0.99;}.cls-17{opacity:0.98;}.cls-18{opacity:0.97;}.cls-19{opacity:0.96;}.cls-20{opacity:0.95;}.cls-21{opacity:0.94;}.cls-22{opacity:0.93;}.cls-23{opacity:0.92;}.cls-24{opacity:0.91;}.cls-25{opacity:0.9;}.cls-26{opacity:0.89;}.cls-27{opacity:0.88;}.cls-28{opacity:0.87;}.cls-29{opacity:0.86;}.cls-30{opacity:0.85;}.cls-31{opacity:0.84;}.cls-32{opacity:0.83;}.cls-33{opacity:0.82;}.cls-34{opacity:0.81;}.cls-35{opacity:0.8;}.cls-36{opacity:0.79;}.cls-37{opacity:0.78;}.cls-38{opacity:0.77;}.cls-39{opacity:0.76;}.cls-40{opacity:0.75;}.cls-41{opacity:0.74;}.cls-42{opacity:0.73;}.cls-43{opacity:0.72;}.cls-44{opacity:0.71;}.cls-45{opacity:0.7;}.cls-46{opacity:0.69;}.cls-47{opacity:0.68;}.cls-48{opacity:0.67;}.cls-49{opacity:0.66;}.cls-50{opacity:0.65;}.cls-51{opacity:0.64;}.cls-52{opacity:0.63;}.cls-53{opacity:0.62;}.cls-54{opacity:0.61;}.cls-55{opacity:0.6;}.cls-56{opacity:0.59;}.cls-57{opacity:0.58;}.cls-58{opacity:0.57;}.cls-59{opacity:0.56;}.cls-60{opacity:0.55;}.cls-61{opacity:0.54;}.cls-62{opacity:0.53;}.cls-63{opacity:0.52;}.cls-64{opacity:0.51;}.cls-65{opacity:0.5;}.cls-66{opacity:0.49;}.cls-67{opacity:0.48;}.cls-68{opacity:0.47;}.cls-69{opacity:0.46;}.cls-70{opacity:0.45;}.cls-71{opacity:0.44;}.cls-72{opacity:0.43;}.cls-73{opacity:0.42;}.cls-74{opacity:0.41;}.cls-75{opacity:0.4;}.cls-76{opacity:0.39;}.cls-77{opacity:0.38;}.cls-78{opacity:0.37;}.cls-79{opacity:0.36;}.cls-80{opacity:0.35;}.cls-81{opacity:0.34;}.cls-82{opacity:0.33;}.cls-83{opacity:0.32;}.cls-84{opacity:0.31;}.cls-85{opacity:0.3;}.cls-86{opacity:0.14;}.cls-87{opacity:0.13;}.cls-88{opacity:0.12;}.cls-89{opacity:0.11;}.cls-90{opacity:0.1;}.cls-91{opacity:0.09;}.cls-92{opacity:0.19;}.cls-93{opacity:0.18;}.cls-94{opacity:0.17;}.cls-95{opacity:0.16;}.cls-96{opacity:0.15;}.cls-97{opacity:0.29;}.cls-98{opacity:0.28;}.cls-99{opacity:0.27;}.cls-100{opacity:0.26;}.cls-101{opacity:0.25;}.cls-102{opacity:0.24;}.cls-103{opacity:0.23;}.cls-104{opacity:0.22;}.cls-105{opacity:0.21;}.cls-106{opacity:0.2;}.cls-107{clip-path:url(#clip-path-2);}</style><clipPath id="clip-path"><path class="cls-1" d="M321.32,134.6a37,37,0,0,0-9.75-22.91,37.32,37.32,0,0,0-29.47-12A34.94,34.94,0,0,0,274,101a34.4,34.4,0,0,0-12.84,7.28,60.84,60.84,0,0,0-7.55,8c-1.81,2.26-3.54,4.57-5.31,6.85l.51,28.12c2.58-3.31,5.13-6.64,7.72-9.94,3.39-4.31,6.76-8.63,10.19-12.91a39.79,39.79,0,0,1,6.21-6.3A17.38,17.38,0,0,1,288,118.5a18.75,18.75,0,0,1,14.75,21,18.79,18.79,0,0,1-32.23,10.33,9.12,9.12,0,0,0-8.47-2.95,9.25,9.25,0,0,0-6.26,14.07,16.76,16.76,0,0,0,2.82,3.12,37.3,37.3,0,0,0,62.75-29.46Z"/></clipPath><clipPath id="clip-path-2"><path class="cls-1" d="M175.78,139.19A37.31,37.31,0,0,0,215,174.13a33.14,33.14,0,0,0,21-8.65,60.37,60.37,0,0,0,7.56-8c1.8-2.25,3.53-4.57,5.3-6.85l-.5-28.11c-2.58,3.31-5.14,6.63-7.73,9.94-3.38,4.31-6.76,8.63-10.18,12.9a40.34,40.34,0,0,1-6.22,6.31,17.32,17.32,0,0,1-15.05,3.63,18.73,18.73,0,0,1-14.75-21A18.78,18.78,0,0,1,226.62,124a9.12,9.12,0,0,0,8.47,3,9.24,9.24,0,0,0,6.25-14.08,17,17,0,0,0-2.82-3.12,37.3,37.3,0,0,0-62.74,29.47Z"/></clipPath></defs><title>web</title><path class="cls-2" d="M309.9,91.86A24.83,24.83,0,0,0,294,67.67a1.34,1.34,0,1,0-.95,2.5,22.17,22.17,0,0,1,14.22,21.59,21.87,21.87,0,0,1-1.74,7.68c.81.43,1.59.88,2.36,1.35A24.79,24.79,0,0,0,309.9,91.86Z"/><path class="cls-2" d="M262.91,90a22.14,22.14,0,0,1,14.34-19.88,1.34,1.34,0,0,0-.94-2.5,24.89,24.89,0,0,0-14.58,31.85l2.61-.71A22.11,22.11,0,0,1,262.91,90Z"/><path class="cls-2" d="M285,78.06a1.34,1.34,0,0,0,1.34-1.34V61.93a1.34,1.34,0,0,0-2.68,0V76.72A1.34,1.34,0,0,0,285,78.06Z"/><path class="cls-2" d="M213.17,181.2a44.5,44.5,0,0,1-44.45-44.45h2.68a41.77,41.77,0,1,0,12-29.33l-3.66,3.71,12.05-42.52h55.79v2.68H193.85l-8.8,31a44.45,44.45,0,1,1,28.12,78.88Z"/><path class="cls-3" d="M68,179.7h-.53a18.11,18.11,0,0,1-16.74-12.28L24.47,68H49.39l19.23,79.22,19-46.4A11.54,11.54,0,0,1,98.27,93.6h0A11.53,11.53,0,0,1,109,100.7l19.29,46.35L147.34,68H175L146.4,166.81a18.23,18.23,0,0,1-16.78,12.8,18.46,18.46,0,0,1-17.5-11.24l-13.73-33-13.51,33A18.12,18.12,0,0,1,68,179.7Z"/><path class="cls-3" d="M601.2,86.8h46.35v-16H601.2a23,23,0,0,0-23,23v83.85h16V135.17h49.52v-16H594.2V93.8A7,7,0,0,1,601.2,86.8Z"/><rect class="cls-3" x="664.96" y="67.72" width="16.01" height="109.93"/><polygon class="cls-3" points="775.53 71.21 696.8 71.21 696.8 87.22 726.44 87.22 726.44 177.65 742.45 177.65 742.45 87.22 775.53 87.22 775.53 71.21"/><path class="cls-4" d="M752.58,50.09c0,.84.56,1.12,1.24.63L774.3,35.78a1,1,0,0,0,0-1.8L753.82,19.05c-.68-.5-1.24-.21-1.24.62v6a1.53,1.53,0,0,1-1.52,1.53h-6.13a1.53,1.53,0,0,0-1.52,1.52V41a1.53,1.53,0,0,0,1.52,1.53h6.13A1.52,1.52,0,0,1,752.58,44Z"/><rect class="cls-4" x="732.76" y="27.25" width="7.43" height="15.27" rx="1.53" ry="1.53"/><rect class="cls-4" x="725.37" y="27.25" width="4.05" height="15.27" rx="1.53" ry="1.53"/><path class="cls-3" d="M508.43,177.12h24.74L495.4,79.74a22.49,22.49,0,0,0-42,.74l-34.46,96.64h24.5l7.73-21.68h27V132.37h-18.8l15.2-42.63Z"/><path class="cls-2" d="M391.33,67.34h-55.4V176.76H358.7V132.89h32.63a32.78,32.78,0,0,0,0-65.55Zm0,42.78H358.7v-20h32.63a9.91,9.91,0,0,1,9.8,10.22A9.81,9.81,0,0,1,391.33,110.12Z"/><g class="cls-5"><g class="cls-6"><path class="cls-7" d="M271.72,122.61,258.9,107.86l-.5.44,13.07,14.52Z"/></g><g class="cls-8"><path class="cls-7" d="M271.47,122.82,258.4,108.3l-.49.45L271.23,123Z"/></g><g class="cls-8"><path class="cls-7" d="M271.23,123l-13.32-14.29-.48.46L271,123.27C271.08,123.19,271.16,123.12,271.23,123Z"/></g><g class="cls-8"><path class="cls-7" d="M271,123.27l-13.57-14.06-.48.47,13.82,13.81A2.39,2.39,0,0,1,271,123.27Z"/></g><g class="cls-9"><path class="cls-7" d="M270.77,123.49,257,109.68l-.46.47,14.05,13.57C270.62,123.65,270.69,123.57,270.77,123.49Z"/></g><g class="cls-9"><path class="cls-7" d="M270.54,123.72l-14.05-13.57-.46.48L270.32,124Z"/></g><g class="cls-9"><path class="cls-7" d="M270.32,124,256,110.63l-.45.49,14.52,13.07Z"/></g><g class="cls-10"><path class="cls-7" d="M270.1,124.19l-14.52-13.07-.44.5,14.75,12.82Z"/></g><g class="cls-10"><path class="cls-7" d="M269.89,124.44l-14.75-12.82-.43.51,15,12.55C269.74,124.6,269.82,124.52,269.89,124.44Z"/></g><g class="cls-10"><path class="cls-7" d="M269.68,124.68l-15-12.55-.42.51,15.18,12.29Z"/></g><g class="cls-11"><path class="cls-7" d="M269.47,124.93l-15.18-12.29-.42.52,15.4,12Z"/></g><g class="cls-11"><path class="cls-7" d="M269.27,125.19l-15.4-12-.4.53,15.6,11.75Z"/></g><g class="cls-11"><path class="cls-7" d="M269.07,125.44l-15.6-11.75-.4.53,15.81,11.48Z"/></g><g class="cls-12"><path class="cls-7" d="M268.88,125.7l-15.81-11.48-.38.54,16,11.21Z"/></g><g class="cls-12"><path class="cls-7" d="M268.69,126l-16-11.21-.38.55,16.19,10.92Z"/></g><g class="cls-12"><path class="cls-7" d="M268.5,126.23l-16.19-10.92-.37.55,16.39,10.64Z"/></g><g class="cls-13"><path class="cls-7" d="M268.33,126.5l-16.39-10.64-.35.56,16.56,10.36Z"/></g><g class="cls-13"><path class="cls-7" d="M268.15,126.78l-16.56-10.36-.35.57L268,127.05C268,127,268.1,126.87,268.15,126.78Z"/></g><g class="cls-13"><path class="cls-7" d="M268,127.05,251.24,117l-.34.57,16.92,9.77C267.88,127.24,267.93,127.14,268,127.05Z"/></g><g class="cls-14"><path class="cls-7" d="M267.82,127.33l-16.92-9.77-.33.58,17.09,9.47Z"/></g><g class="cls-14"><path class="cls-7" d="M267.66,127.61l-17.09-9.47-.31.58,17.25,9.17Z"/></g><g class="cls-14"><path class="cls-7" d="M267.51,127.89l-17.25-9.17-.31.59,17.41,8.87C267.41,128.09,267.45,128,267.51,127.89Z"/></g><g class="cls-15"><path class="cls-7" d="M267.36,128.18,250,119.31l-.3.6,17.56,8.56Z"/></g><g class="cls-15"><path class="cls-7" d="M267.21,128.47l-17.56-8.56-.28.6,17.7,8.25C267.12,128.67,267.16,128.57,267.21,128.47Z"/></g><g class="cls-15"><path class="cls-7" d="M267.07,128.76l-17.7-8.25-.28.6,17.85,8Z"/></g><path class="cls-7" d="M266.94,144.14l-17.85,8,.28.6,17.7-8.26C267,144.34,267,144.24,266.94,144.14Z"/><path class="cls-7" d="M267.07,144.43l-17.7,8.26.28.6,17.56-8.56Z"/><path class="cls-7" d="M267.21,144.73l-17.56,8.56.3.59L267.36,145Z"/><g class="cls-16"><path class="cls-7" d="M267.36,145,250,153.88l.31.59,17.25-9.17C267.45,145.21,267.41,145.11,267.36,145Z"/></g><g class="cls-16"><path class="cls-7" d="M267.51,145.3l-17.25,9.17.31.59,17.09-9.47Z"/></g><g class="cls-16"><path class="cls-7" d="M267.66,145.59l-17.09,9.47.33.58,16.92-9.77C267.77,145.77,267.71,145.68,267.66,145.59Z"/></g><g class="cls-17"><path class="cls-7" d="M267.82,145.87l-16.92,9.77.34.57L268,146.15C267.93,146.06,267.88,146,267.82,145.87Z"/></g><g class="cls-17"><path class="cls-7" d="M268,146.15l-16.74,10.06.35.57,16.56-10.36C268.1,146.33,268,146.24,268,146.15Z"/></g><g class="cls-17"><path class="cls-7" d="M268.15,146.42l-16.56,10.36.35.56,16.39-10.64Z"/></g><g class="cls-18"><path class="cls-7" d="M268.33,146.7l-16.39,10.64.37.55L268.5,147Z"/></g><g class="cls-18"><path class="cls-7" d="M268.5,147l-16.19,10.92.38.55,16-11.21Z"/></g><g class="cls-18"><path class="cls-7" d="M268.69,147.23l-16,11.21.38.54,15.81-11.49Z"/></g><g class="cls-19"><path class="cls-7" d="M268.88,147.49,253.07,159l.4.53,15.6-11.75Z"/></g><g class="cls-19"><path class="cls-7" d="M269.07,147.76l-15.6,11.75.4.53,15.4-12Z"/></g><g class="cls-19"><path class="cls-7" d="M269.27,148l-15.4,12,.42.52,15.18-12.3Z"/></g><g class="cls-20"><path class="cls-7" d="M269.47,148.26l-15.18,12.3.42.51,15-12.56Z"/></g><g class="cls-20"><path class="cls-7" d="M269.68,148.51l-15,12.56.43.51,14.75-12.82A2.52,2.52,0,0,1,269.68,148.51Z"/></g><g class="cls-20"><path class="cls-7" d="M269.89,148.76l-14.75,12.82.44.5L270.1,149Z"/></g><g class="cls-21"><path class="cls-7" d="M270.1,149l-14.52,13.08.45.49,14.29-13.33Z"/></g><g class="cls-21"><path class="cls-7" d="M270.32,149.24,256,162.57l.46.48,14.05-13.58Z"/></g><g class="cls-21"><path class="cls-7" d="M270.54,149.47l-14.05,13.58.46.47,13.82-13.81Z"/></g><g class="cls-22"><path class="cls-7" d="M270.77,149.71,257,163.52l.48.47L271,149.93A2.39,2.39,0,0,1,270.77,149.71Z"/></g><g class="cls-22"><path class="cls-7" d="M271,149.93,257.43,164l.48.45,13.32-14.28Z"/></g><g class="cls-22"><path class="cls-7" d="M271.23,150.16l-13.32,14.28.49.45,13.07-14.51Z"/></g><g class="cls-23"><path class="cls-7" d="M271.47,150.38,258.4,164.89l.5.44,12.82-14.74Z"/></g><g class="cls-23"><path class="cls-7" d="M271.72,150.59,258.9,165.33l.5.44,12.56-15Z"/></g><g class="cls-23"><path class="cls-7" d="M272,150.8l-12.56,15,.51.42L272.21,151Z"/></g><g class="cls-24"><path class="cls-7" d="M272.21,151l-12.3,15.18.52.41,12-15.39Z"/></g><g class="cls-24"><path class="cls-7" d="M272.46,151.21l-12,15.39.53.41,11.76-15.6Z"/></g><g class="cls-24"><path class="cls-7" d="M272.72,151.41,261,167l.54.39L273,151.6Z"/></g><g class="cls-25"><path class="cls-7" d="M273,151.6,261.5,167.4l.54.39,11.2-16Z"/></g><g class="cls-25"><path class="cls-7" d="M273.24,151.78l-11.2,16,.54.37L273.51,152Z"/></g><g class="cls-25"><path class="cls-7" d="M273.51,152l-10.93,16.19.56.37,10.64-16.38Z"/></g><g class="cls-26"><path class="cls-7" d="M273.78,152.15l-10.64,16.38.56.36,10.35-16.57Z"/></g><g class="cls-26"><path class="cls-7" d="M274.05,152.32,263.7,168.89l.57.35,10.06-16.75A2.61,2.61,0,0,1,274.05,152.32Z"/></g><g class="cls-26"><path class="cls-7" d="M274.33,152.49l-10.06,16.75.57.33,9.77-16.92Z"/></g><g class="cls-27"><path class="cls-7" d="M274.61,152.65l-9.77,16.92.58.33,9.47-17.09Z"/></g><g class="cls-27"><path class="cls-7" d="M274.89,152.81l-9.47,17.09.58.32L275.17,153Z"/></g><g class="cls-27"><path class="cls-7" d="M275.17,153,266,170.22l.59.3,8.87-17.4Z"/></g><g class="cls-28"><path class="cls-7" d="M275.46,153.12l-8.87,17.4.59.3,8.57-17.56Z"/></g><g class="cls-28"><path class="cls-7" d="M275.75,153.26l-8.57,17.56.6.29L276,153.4Z"/></g><g class="cls-28"><path class="cls-7" d="M276,153.4l-8.26,17.71.61.27,7.94-17.84Z"/></g><g class="cls-29"><path class="cls-7" d="M276.33,153.54l-7.94,17.84.61.27,7.63-18Z"/></g><g class="cls-29"><path class="cls-7" d="M276.63,153.67l-7.63,18,.61.25,7.32-18.11Z"/></g><g class="cls-29"><path class="cls-7" d="M276.93,153.79l-7.32,18.11.62.24,7-18.23Z"/></g><g class="cls-30"><path class="cls-7" d="M277.23,153.91l-7,18.23.62.24L277.53,154Z"/></g><g class="cls-30"><path class="cls-7" d="M277.53,154l-6.68,18.36.63.22,6.36-18.47Z"/></g><g class="cls-30"><path class="cls-7" d="M277.84,154.13l-6.36,18.47.63.21,6-18.58Z"/></g><g class="cls-31"><path class="cls-7" d="M278.15,154.23l-6,18.58.63.2,5.71-18.68Z"/></g><g class="cls-31"><path class="cls-7" d="M278.45,154.33,272.74,173l.64.19,5.39-18.78Z"/></g><g class="cls-31"><path class="cls-7" d="M278.77,154.42l-5.39,18.78.64.18,5.06-18.87Z"/></g><g class="cls-32"><path class="cls-7" d="M279.08,154.51,274,173.38l.64.16,4.73-18.95Z"/></g><g class="cls-32"><path class="cls-7" d="M279.39,154.59l-4.73,18.95.65.16,4.4-19Z"/></g><g class="cls-32"><path class="cls-7" d="M279.71,154.66l-4.4,19,.65.14L280,154.73Z"/></g><g class="cls-33"><path class="cls-7" d="M280,154.73,276,173.84l.65.13,3.73-19.17Z"/></g><g class="cls-33"><path class="cls-7" d="M280.34,154.8,276.61,174l.65.12,3.4-19.24Z"/></g><g class="cls-33"><path class="cls-7" d="M280.66,154.85l-3.4,19.24.66.11L281,154.91Z"/></g><g class="cls-34"><path class="cls-7" d="M281,154.91l-3.05,19.29.66.1L281.3,155Z"/></g><g class="cls-34"><path class="cls-7" d="M281.3,155l-2.72,19.34.66.09L281.62,155Z"/></g><g class="cls-34"><path class="cls-7" d="M281.62,155l-2.38,19.39.66.07,2-19.42Z"/></g><g class="cls-35"><path class="cls-7" d="M281.94,155l-2,19.42.66.07,1.7-19.47Z"/></g><g class="cls-35"><path class="cls-7" d="M282.26,155.06l-1.7,19.47.66.05,1.36-19.49Z"/></g><g class="cls-35"><path class="cls-7" d="M282.58,155.09l-1.36,19.49.66,0,1-19.51Z"/></g><g class="cls-36"><path class="cls-7" d="M282.9,155.11l-1,19.51.67,0,.68-19.53Z"/></g><g class="cls-36"><path class="cls-7" d="M283.23,155.12l-.68,19.53.66,0,.34-19.54Z"/></g><g class="cls-36"><path class="cls-7" d="M283.55,155.13l-.34,19.54h.67V155.14Z"/></g><g class="cls-37"><path class="cls-7" d="M283.88,155.14v19.53h.66l-.34-19.54Z"/></g><g class="cls-37"><path class="cls-7" d="M284.2,155.13l.34,19.54.66,0-.68-19.53Z"/></g><g class="cls-37"><path class="cls-7" d="M284.52,155.12l.68,19.53.67,0-1-19.51Z"/></g><g class="cls-38"><path class="cls-7" d="M284.85,155.11l1,19.51.66,0-1.36-19.49Z"/></g><g class="cls-38"><path class="cls-7" d="M285.17,155.09l1.36,19.49.66-.05-1.7-19.47Z"/></g><g class="cls-38"><path class="cls-7" d="M285.49,155.06l1.7,19.47.67-.07L285.81,155Z"/></g><g class="cls-39"><path class="cls-7" d="M285.81,155l2.05,19.42.66-.07L286.13,155Z"/></g><g class="cls-39"><path class="cls-7" d="M286.13,155l2.39,19.39.65-.09L286.46,155Z"/></g><g class="cls-39"><path class="cls-7" d="M286.46,155l2.71,19.34.66-.1-3.05-19.29Z"/></g><g class="cls-40"><path class="cls-7" d="M286.78,154.91l3.05,19.29.66-.11-3.4-19.24Z"/></g><g class="cls-40"><path class="cls-7" d="M287.09,154.85l3.4,19.24.65-.12-3.73-19.17Z"/></g><g class="cls-40"><path class="cls-7" d="M287.41,154.8,291.14,174l.65-.13-4.06-19.11Z"/></g><g class="cls-41"><path class="cls-7" d="M287.73,154.73l4.06,19.11.65-.14-4.39-19Z"/></g><g class="cls-41"><path class="cls-7" d="M288.05,154.66l4.39,19,.65-.16-4.73-18.95Z"/></g><g class="cls-41"><path class="cls-7" d="M288.36,154.59l4.73,18.95.64-.16-5.06-18.87Z"/></g><g class="cls-42"><path class="cls-7" d="M288.67,154.51l5.06,18.87.64-.18L289,154.42Z"/></g><g class="cls-42"><path class="cls-7" d="M289,154.42l5.38,18.78L295,173l-5.71-18.68Z"/></g><g class="cls-42"><path class="cls-7" d="M289.3,154.33,295,173l.63-.2-6-18.58Z"/></g><g class="cls-43"><path class="cls-7" d="M289.6,154.23l6,18.58.63-.21-6.36-18.47Z"/></g><g class="cls-43"><path class="cls-7" d="M289.91,154.13l6.36,18.47.63-.22L290.22,154Z"/></g><g class="cls-43"><path class="cls-7" d="M290.22,154l6.68,18.36.62-.24-7-18.23Z"/></g><g class="cls-44"><path class="cls-7" d="M290.52,153.91l7,18.23.62-.24-7.32-18.11Z"/></g><g class="cls-44"><path class="cls-7" d="M290.82,153.79l7.32,18.11.61-.25-7.63-18Z"/></g><g class="cls-44"><path class="cls-7" d="M291.12,153.67l7.63,18,.61-.27-7.94-17.84Z"/></g><g class="cls-45"><path class="cls-7" d="M291.42,153.54l7.94,17.84.61-.27-8.26-17.71Z"/></g><g class="cls-45"><path class="cls-7" d="M291.71,153.4,300,171.11l.6-.29L292,153.26Z"/></g><g class="cls-45"><path class="cls-7" d="M292,153.26l8.57,17.56.59-.3-8.87-17.4Z"/></g><g class="cls-46"><path class="cls-7" d="M292.29,153.12l8.87,17.4.59-.3L292.58,153Z"/></g><g class="cls-46"><path class="cls-7" d="M292.58,153l9.17,17.25.58-.32-9.47-17.09Z"/></g><g class="cls-46"><path class="cls-7" d="M292.86,152.81l9.47,17.09.58-.33-9.77-16.92Z"/></g><g class="cls-47"><path class="cls-7" d="M293.14,152.65l9.77,16.92.58-.33-10.07-16.75Z"/></g><g class="cls-47"><path class="cls-7" d="M293.42,152.49l10.07,16.75.56-.35L293.7,152.32A2.61,2.61,0,0,1,293.42,152.49Z"/></g><g class="cls-47"><path class="cls-7" d="M293.7,152.32l10.35,16.57.56-.36L294,152.15Z"/></g><g class="cls-48"><path class="cls-7" d="M294,152.15l10.64,16.38.56-.37L294.24,152Z"/></g><g class="cls-48"><path class="cls-7" d="M294.24,152l10.93,16.19.54-.37-11.2-16Z"/></g><g class="cls-48"><path class="cls-7" d="M294.51,151.78l11.2,16,.54-.39-11.48-15.8Z"/></g><g class="cls-49"><path class="cls-7" d="M294.77,151.6l11.48,15.8.54-.39L295,151.41Z"/></g><g class="cls-49"><path class="cls-7" d="M295,151.41,306.79,167l.53-.41-12-15.39Z"/></g><g class="cls-49"><path class="cls-7" d="M295.29,151.21l12,15.39.52-.41L295.54,151Z"/></g><g class="cls-50"><path class="cls-7" d="M295.54,151l12.3,15.18.51-.42-12.56-15Z"/></g><g class="cls-50"><path class="cls-7" d="M295.79,150.8l12.56,15,.5-.44L296,150.59Z"/></g><g class="cls-50"><path class="cls-7" d="M296,150.59l12.81,14.74.5-.44-13.07-14.51Z"/></g><g class="cls-51"><path class="cls-7" d="M296.28,150.38l13.07,14.51.49-.45-13.32-14.28Z"/></g><g class="cls-51"><path class="cls-7" d="M296.52,150.16l13.32,14.28.48-.45-13.57-14.06Z"/></g><g class="cls-51"><path class="cls-7" d="M296.75,149.93,310.32,164l.48-.47L297,149.71A2.39,2.39,0,0,1,296.75,149.93Z"/></g><g class="cls-52"><path class="cls-7" d="M297,149.71l13.82,13.81.46-.47-14.05-13.58Z"/></g><g class="cls-52"><path class="cls-7" d="M297.21,149.47l14.05,13.58.46-.48-14.29-13.33Z"/></g><g class="cls-52"><path class="cls-7" d="M297.43,149.24l14.29,13.33.45-.49L297.65,149Z"/></g><g class="cls-53"><path class="cls-7" d="M297.65,149l14.52,13.08.44-.5-14.75-12.82Z"/></g><g class="cls-53"><path class="cls-7" d="M297.86,148.76l14.75,12.82.43-.51-15-12.56C298,148.6,297.93,148.68,297.86,148.76Z"/></g><g class="cls-53"><path class="cls-7" d="M298.08,148.51l15,12.56.42-.51-15.18-12.3Z"/></g><g class="cls-54"><path class="cls-7" d="M298.28,148.26l15.18,12.3.42-.52-15.4-12Z"/></g><g class="cls-54"><path class="cls-7" d="M298.48,148l15.4,12,.4-.53-15.6-11.75Z"/></g><g class="cls-54"><path class="cls-7" d="M298.68,147.76l15.6,11.75.4-.53-15.81-11.49Z"/></g><g class="cls-55"><path class="cls-7" d="M298.87,147.49,314.68,159l.38-.54-16-11.21A2.48,2.48,0,0,1,298.87,147.49Z"/></g><g class="cls-55"><path class="cls-7" d="M299.06,147.23l16,11.21.38-.55L299.25,147Z"/></g><g class="cls-55"><path class="cls-7" d="M299.25,147l16.19,10.92.37-.55L299.42,146.7Z"/></g><g class="cls-56"><path class="cls-7" d="M299.42,146.7l16.39,10.64.35-.56L299.6,146.42Z"/></g><g class="cls-56"><path class="cls-7" d="M299.6,146.42l16.56,10.36.35-.57-16.74-10.06C299.71,146.24,299.65,146.33,299.6,146.42Z"/></g><g class="cls-56"><path class="cls-7" d="M299.77,146.15l16.74,10.06.34-.57-16.92-9.77Z"/></g><g class="cls-57"><path class="cls-7" d="M299.93,145.87l16.92,9.77.33-.58-17.09-9.47C300,145.68,300,145.77,299.93,145.87Z"/></g><g class="cls-57"><path class="cls-7" d="M300.09,145.59l17.09,9.47.31-.59-17.24-9.17Z"/></g><g class="cls-57"><path class="cls-7" d="M300.25,145.3l17.24,9.17.31-.59L300.39,145C300.34,145.11,300.3,145.21,300.25,145.3Z"/></g><g class="cls-58"><path class="cls-7" d="M300.39,145l17.41,8.86.3-.59-17.56-8.56Z"/></g><g class="cls-58"><path class="cls-7" d="M300.54,144.73l17.56,8.56.28-.6-17.7-8.26Z"/></g><g class="cls-58"><path class="cls-7" d="M300.68,144.43l17.7,8.26.28-.6-17.85-8C300.77,144.24,300.72,144.34,300.68,144.43Z"/></g><g class="cls-59"><path class="cls-7" d="M300.81,144.14l17.85,8,.26-.61-18-7.64C300.9,143.94,300.86,144,300.81,144.14Z"/></g><g class="cls-59"><path class="cls-7" d="M300.94,143.84l18,7.64.26-.62-18.11-7.32C301,143.64,301,143.75,300.94,143.84Z"/></g><g class="cls-59"><path class="cls-7" d="M301.07,143.54l18.11,7.32.24-.62-18.24-7C301.15,143.34,301.11,143.44,301.07,143.54Z"/></g><g class="cls-60"><path class="cls-7" d="M301.18,143.24l18.24,7,.23-.62-18.35-6.68Z"/></g><g class="cls-60"><path class="cls-7" d="M301.3,142.94l18.35,6.68.23-.63-18.48-6.36A2.81,2.81,0,0,1,301.3,142.94Z"/></g><g class="cls-60"><path class="cls-7" d="M301.4,142.63,319.88,149l.21-.63-18.58-6C301.48,142.43,301.44,142.53,301.4,142.63Z"/></g><g class="cls-61"><path class="cls-7" d="M301.51,142.33l18.58,6,.2-.63L301.61,142Z"/></g><g class="cls-61"><path class="cls-7" d="M301.61,142l18.68,5.71.18-.64-18.77-5.38Z"/></g><g class="cls-61"><path class="cls-7" d="M301.7,141.71l18.77,5.38.18-.64-18.87-5C301.76,141.5,301.73,141.61,301.7,141.71Z"/></g><g class="cls-62"><path class="cls-7" d="M301.78,141.4l18.87,5,.17-.64-18.95-4.73Z"/></g><g class="cls-62"><path class="cls-7" d="M301.87,141.08l18.95,4.73.15-.65-19-4.39C301.91,140.87,301.89,141,301.87,141.08Z"/></g><g class="cls-62"><path class="cls-7" d="M301.94,140.77l19,4.39.15-.64L302,140.45C302,140.56,302,140.66,301.94,140.77Z"/></g><g class="cls-63"><path class="cls-7" d="M302,140.45l19.11,4.07.13-.66-19.18-3.72Z"/></g><g class="cls-63"><path class="cls-7" d="M302.07,140.14l19.18,3.72.12-.65-19.24-3.39Z"/></g><g class="cls-63"><path class="cls-7" d="M302.13,139.82l19.24,3.39.11-.65-19.29-3.06Z"/></g><g class="cls-64"><path class="cls-7" d="M302.19,139.5l19.29,3.06.1-.66-19.35-2.72C302.22,139.29,302.2,139.39,302.19,139.5Z"/></g><g class="cls-64"><path class="cls-7" d="M302.23,139.18l19.35,2.72.09-.66-19.4-2.38C302.26,139,302.25,139.07,302.23,139.18Z"/></g><g class="cls-64"><path class="cls-7" d="M302.27,138.86l19.4,2.38.07-.66-19.43-2C302.3,138.64,302.29,138.75,302.27,138.86Z"/></g><g class="cls-65"><path class="cls-7" d="M302.31,138.54l19.43,2,.06-.66-19.46-1.71C302.33,138.32,302.33,138.43,302.31,138.54Z"/></g><g class="cls-65"><path class="cls-7" d="M302.34,138.21l19.46,1.71.06-.66-19.49-1.37Z"/></g><g class="cls-65"><path class="cls-7" d="M302.37,137.89l19.49,1.37,0-.67-19.51-1C302.38,137.68,302.37,137.78,302.37,137.89Z"/></g><g class="cls-66"><path class="cls-7" d="M302.39,137.57l19.51,1,0-.66-19.53-.68C302.4,137.35,302.4,137.46,302.39,137.57Z"/></g><g class="cls-66"><path class="cls-7" d="M302.4,137.25l19.53.68v-.67l-19.53-.34C302.41,137,302.4,137.14,302.4,137.25Z"/></g><g class="cls-66"><path class="cls-7" d="M302.42,136.6c0,.11,0,.21,0,.32l19.53.34v-.66Z"/></g><g class="cls-67"><path class="cls-7" d="M302.42,136.6H322v-.67l-19.53.35C302.41,136.38,302.42,136.49,302.42,136.6Z"/></g><g class="cls-67"><path class="cls-7" d="M302.41,136.28l19.53-.35v-.66L302.4,136C302.4,136.06,302.41,136.17,302.41,136.28Z"/></g><g class="cls-67"><path class="cls-7" d="M302.4,136l19.53-.68,0-.66-19.51,1C302.4,135.74,302.4,135.84,302.4,136Z"/></g><g class="cls-68"><path class="cls-7" d="M302.39,135.63l19.51-1,0-.67-19.49,1.37C302.37,135.41,302.38,135.52,302.39,135.63Z"/></g><g class="cls-68"><path class="cls-7" d="M302.37,135.31l19.49-1.37-.06-.66L302.34,135Z"/></g><g class="cls-68"><path class="cls-7" d="M302.34,135l19.46-1.7-.06-.66-19.43,2C302.33,134.77,302.33,134.88,302.34,135Z"/></g><g class="cls-69"><path class="cls-7" d="M302.31,134.66l19.43-2-.07-.66-19.4,2.38C302.29,134.45,302.3,134.55,302.31,134.66Z"/></g><g class="cls-69"><path class="cls-7" d="M302.27,134.34l19.4-2.38-.09-.66L302.23,134C302.25,134.13,302.26,134.23,302.27,134.34Z"/></g><g class="cls-69"><path class="cls-7" d="M302.23,134l19.35-2.72-.1-.66-19.29,3.06C302.2,133.8,302.22,133.91,302.23,134Z"/></g><g class="cls-70"><path class="cls-7" d="M302.19,133.7l19.29-3.06-.11-.65-19.24,3.39Z"/></g><g class="cls-70"><path class="cls-7" d="M302.13,133.38,321.37,130l-.12-.66-19.18,3.73Z"/></g><g class="cls-70"><path class="cls-7" d="M302.07,133.06l19.18-3.73-.13-.65L302,132.74Z"/></g><g class="cls-71"><path class="cls-7" d="M302,132.74l19.11-4.06L321,128l-19,4.4C302,132.53,302,132.64,302,132.74Z"/></g><g class="cls-71"><path class="cls-7" d="M301.94,132.43l19-4.4-.15-.64-18.95,4.72C301.89,132.22,301.91,132.32,301.94,132.43Z"/></g><g class="cls-71"><path class="cls-7" d="M301.87,132.11l18.95-4.72-.17-.65-18.87,5.06Z"/></g><g class="cls-72"><path class="cls-7" d="M301.78,131.8l18.87-5.06-.18-.64-18.77,5.39C301.73,131.59,301.76,131.7,301.78,131.8Z"/></g><g class="cls-72"><path class="cls-7" d="M301.7,131.49l18.77-5.39-.18-.63-18.68,5.71Z"/></g><g class="cls-72"><path class="cls-7" d="M301.61,131.18l18.68-5.71-.2-.64-18.58,6C301.54,131,301.58,131.07,301.61,131.18Z"/></g><g class="cls-73"><path class="cls-7" d="M301.51,130.87l18.58-6-.21-.63-18.48,6.36C301.44,130.67,301.48,130.77,301.51,130.87Z"/></g><g class="cls-73"><path class="cls-7" d="M301.4,130.56l18.48-6.36-.23-.62-18.35,6.68C301.34,130.36,301.37,130.46,301.4,130.56Z"/></g><g class="cls-73"><path class="cls-7" d="M301.3,130.26l18.35-6.68-.23-.63-18.24,7Z"/></g><g class="cls-74"><path class="cls-7" d="M301.18,130l18.24-7-.24-.61-18.11,7.31A2.83,2.83,0,0,1,301.18,130Z"/></g><g class="cls-74"><path class="cls-7" d="M301.07,129.65l18.11-7.31-.26-.62-18,7.63C301,129.45,301,129.55,301.07,129.65Z"/></g><g class="cls-74"><path class="cls-7" d="M300.94,129.35l18-7.63-.26-.61-17.85,8C300.86,129.16,300.9,129.25,300.94,129.35Z"/></g><g class="cls-75"><path class="cls-7" d="M300.81,129.06l17.85-8-.28-.6-17.7,8.25Z"/></g><g class="cls-75"><path class="cls-7" d="M300.68,128.76l17.7-8.25-.28-.6-17.56,8.56C300.59,128.57,300.63,128.67,300.68,128.76Z"/></g><g class="cls-75"><path class="cls-7" d="M300.54,128.47l17.56-8.56-.3-.6-17.41,8.87Z"/></g><g class="cls-76"><path class="cls-7" d="M300.39,128.18l17.41-8.87-.31-.59-17.24,9.17C300.3,128,300.34,128.09,300.39,128.18Z"/></g><g class="cls-76"><path class="cls-7" d="M300.25,127.89l17.24-9.17-.31-.58-17.09,9.47A2.54,2.54,0,0,0,300.25,127.89Z"/></g><g class="cls-76"><path class="cls-7" d="M300.09,127.61l17.09-9.47-.33-.58-16.92,9.77Z"/></g><g class="cls-77"><path class="cls-7" d="M299.93,127.33l16.92-9.77-.34-.57-16.74,10.06Z"/></g><g class="cls-77"><path class="cls-7" d="M299.77,127.05,316.51,117l-.35-.57L299.6,126.78C299.65,126.87,299.71,127,299.77,127.05Z"/></g><g class="cls-77"><path class="cls-7" d="M299.6,126.78l16.56-10.36-.35-.56L299.42,126.5Z"/></g><g class="cls-78"><path class="cls-7" d="M299.42,126.5l16.39-10.64-.37-.55-16.19,10.92Z"/></g><g class="cls-78"><path class="cls-7" d="M299.25,126.23l16.19-10.92-.38-.55-16,11.21Z"/></g><g class="cls-78"><path class="cls-7" d="M299.06,126l16-11.21-.38-.54L298.87,125.7Z"/></g><g class="cls-79"><path class="cls-7" d="M298.87,125.7l15.81-11.48-.4-.53-15.6,11.75Z"/></g><g class="cls-79"><path class="cls-7" d="M298.68,125.44l15.6-11.75-.4-.53-15.4,12Z"/></g><g class="cls-79"><path class="cls-7" d="M298.48,125.19l15.4-12-.42-.52-15.18,12.29Z"/></g><g class="cls-80"><path class="cls-7" d="M298.28,124.93l15.18-12.29-.42-.51-15,12.55A2.43,2.43,0,0,0,298.28,124.93Z"/></g><g class="cls-80"><path class="cls-7" d="M298.08,124.68l15-12.55-.43-.51-14.75,12.82Z"/></g><g class="cls-80"><path class="cls-7" d="M297.86,124.44l14.75-12.82-.44-.5-14.52,13.07Z"/></g><g class="cls-81"><path class="cls-7" d="M297.65,124.19l14.52-13.07-.45-.49L297.43,124Z"/></g><g class="cls-81"><path class="cls-7" d="M297.43,124l14.29-13.33-.46-.48-14.05,13.57Z"/></g><g class="cls-81"><path class="cls-7" d="M297.21,123.72l14.05-13.57-.46-.47L297,123.49C297.06,123.57,297.13,123.65,297.21,123.72Z"/></g><g class="cls-82"><path class="cls-7" d="M297,123.49l13.82-13.81-.48-.47-13.57,14.06A2.39,2.39,0,0,1,297,123.49Z"/></g><g class="cls-82"><path class="cls-7" d="M296.75,123.27l13.57-14.06-.48-.46L296.52,123Z"/></g><g class="cls-82"><path class="cls-7" d="M296.52,123l13.32-14.29-.49-.45-13.07,14.52Z"/></g><g class="cls-83"><path class="cls-7" d="M296.28,122.82l13.07-14.52-.5-.44L296,122.61Z"/></g><g class="cls-83"><path class="cls-7" d="M296,122.61l12.81-14.75-.5-.43-12.56,15Z"/></g><g class="cls-83"><path class="cls-7" d="M295.79,122.4l12.56-15-.51-.42-12.3,15.18Z"/></g><g class="cls-84"><path class="cls-7" d="M295.54,122.19,307.84,107l-.52-.41-12,15.39Z"/></g><g class="cls-84"><path class="cls-7" d="M295.29,122l12-15.39-.53-.41L295,121.79Z"/></g><g class="cls-84"><path class="cls-7" d="M295,121.79l11.76-15.6-.54-.39-11.48,15.8Z"/></g><g class="cls-85"><path class="cls-7" d="M294.77,121.6l11.48-15.8-.54-.39-11.2,16Z"/></g><g class="cls-85"><path class="cls-7" d="M294.51,121.42l11.2-16-.54-.38-10.93,16.2Z"/></g><g class="cls-86"><path class="cls-7" d="M278.77,118.78,273.38,100l-.64.19,5.71,18.68Z"/></g><g class="cls-86"><path class="cls-7" d="M278.45,118.87l-5.71-18.68-.63.2,6,18.58Z"/></g><g class="cls-87"><path class="cls-7" d="M278.15,119l-6-18.58-.63.21,6.36,18.47Z"/></g><g class="cls-87"><path class="cls-7" d="M277.84,119.07l-6.36-18.47-.63.22,6.68,18.35Z"/></g><g class="cls-87"><path class="cls-7" d="M277.53,119.17l-6.68-18.35-.62.23,7,18.24Z"/></g><g class="cls-87"><path class="cls-7" d="M277.23,119.29l-7-18.24-.62.25,7.32,18.11Z"/></g><g class="cls-87"><path class="cls-7" d="M276.93,119.41l-7.32-18.11-.61.25,7.63,18Z"/></g><g class="cls-87"><path class="cls-7" d="M276.63,119.53l-7.63-18-.61.27,7.94,17.84Z"/></g><g class="cls-88"><path class="cls-7" d="M276.33,119.66l-7.94-17.84-.61.27L276,119.8Z"/></g><g class="cls-88"><path class="cls-7" d="M276,119.8l-8.26-17.71-.6.29,8.57,17.55Z"/></g><g class="cls-88"><path class="cls-7" d="M275.75,119.93l-8.57-17.55-.59.29,8.87,17.41Z"/></g><g class="cls-88"><path class="cls-7" d="M275.46,120.08l-8.87-17.41L266,103l9.17,17.25Z"/></g><g class="cls-88"><path class="cls-7" d="M275.17,120.23,266,103l-.58.32,9.47,17.08Z"/></g><g class="cls-88"><path class="cls-7" d="M274.89,120.38l-9.47-17.08-.58.33,9.77,16.92Z"/></g><g class="cls-89"><path class="cls-7" d="M274.61,120.55l-9.77-16.92-.57.33,10.06,16.75Z"/></g><g class="cls-89"><path class="cls-7" d="M274.33,120.71,264.27,104l-.57.35,10.35,16.57A2.61,2.61,0,0,1,274.33,120.71Z"/></g><g class="cls-89"><path class="cls-7" d="M274.05,120.88,263.7,104.31l-.56.36,10.64,16.38Z"/></g><g class="cls-90"><path class="cls-7" d="M273.78,121.05l-10.64-16.38-.56.36,10.93,16.2Z"/></g><g class="cls-90"><path class="cls-7" d="M273.51,121.23,262.58,105l-.54.38,11.2,16Z"/></g><g class="cls-90"><path class="cls-7" d="M273.24,121.41l-11.2-16-.54.39L273,121.6Z"/></g><g class="cls-91"><path class="cls-7" d="M273,121.6,261.5,105.8l-.54.39,11.76,15.6Z"/></g><g class="cls-91"><path class="cls-7" d="M272.72,121.79,261,106.19l-.53.41,12,15.39Z"/></g><g class="cls-91"><path class="cls-7" d="M272.46,122l-12-15.39-.52.41,12.3,15.18Z"/></g><g class="cls-6"><path class="cls-7" d="M272.21,122.19,259.91,107l-.51.42,12.56,15Z"/></g><g class="cls-6"><path class="cls-7" d="M272,122.4l-12.56-15-.5.43,12.82,14.75Z"/></g><g class="cls-92"><path class="cls-7" d="M283.88,118.06V98.52h-.67l.34,19.54Z"/></g><g class="cls-92"><path class="cls-7" d="M283.55,118.07l-.34-19.54-.66,0,.68,19.53Z"/></g><g class="cls-92"><path class="cls-7" d="M283.23,118.08l-.68-19.53-.67,0,1,19.5Z"/></g><g class="cls-93"><path class="cls-7" d="M282.9,118.08l-1-19.5-.66,0,1.36,19.49Z"/></g><g class="cls-93"><path class="cls-7" d="M282.58,118.11l-1.36-19.49-.66,0,1.7,19.46Z"/></g><g class="cls-93"><path class="cls-7" d="M282.26,118.13l-1.7-19.46-.66.06,2,19.43Z"/></g><g class="cls-94"><path class="cls-7" d="M281.94,118.16l-2-19.43-.66.08,2.38,19.39Z"/></g><g class="cls-94"><path class="cls-7" d="M281.62,118.2l-2.38-19.39-.66.09,2.72,19.34Z"/></g><g class="cls-94"><path class="cls-7" d="M281.3,118.24,278.58,98.9l-.66.09,3.05,19.3Z"/></g><g class="cls-95"><path class="cls-7" d="M281,118.29,277.92,99l-.66.11,3.4,19.24Z"/></g><g class="cls-95"><path class="cls-7" d="M280.66,118.34l-3.4-19.24-.65.12,3.73,19.18Z"/></g><g class="cls-95"><path class="cls-7" d="M280.34,118.4l-3.73-19.18-.65.14,4.06,19.1Z"/></g><g class="cls-96"><path class="cls-7" d="M280,118.46,276,99.36l-.65.14,4.4,19Z"/></g><g class="cls-96"><path class="cls-7" d="M279.71,118.54l-4.4-19-.65.16,4.73,19Z"/></g><g class="cls-96"><path class="cls-7" d="M279.39,118.61l-4.73-19-.64.16,5.06,18.87Z"/></g><g class="cls-86"><path class="cls-7" d="M279.08,118.69,274,99.82l-.64.18,5.39,18.78Z"/></g><g class="cls-85"><path class="cls-7" d="M294.24,121.23,305.17,105l-.56-.36L294,121.05Z"/></g><g class="cls-97"><path class="cls-7" d="M294,121.05l10.64-16.38-.56-.36L293.7,120.88Z"/></g><g class="cls-97"><path class="cls-7" d="M293.7,120.88l10.35-16.57-.56-.35-10.07,16.75A2.61,2.61,0,0,1,293.7,120.88Z"/></g><g class="cls-97"><path class="cls-7" d="M293.42,120.71,303.49,104l-.58-.33-9.77,16.92Z"/></g><g class="cls-98"><path class="cls-7" d="M293.14,120.55l9.77-16.92-.58-.33-9.47,17.08Z"/></g><g class="cls-98"><path class="cls-7" d="M292.86,120.38l9.47-17.08-.58-.32-9.17,17.25Z"/></g><g class="cls-98"><path class="cls-7" d="M292.58,120.23,301.75,103l-.59-.31-8.87,17.41Z"/></g><g class="cls-99"><path class="cls-7" d="M292.29,120.08l8.87-17.41-.59-.29L292,119.93Z"/></g><g class="cls-99"><path class="cls-7" d="M292,119.93l8.57-17.55-.6-.29-8.26,17.71Z"/></g><g class="cls-99"><path class="cls-7" d="M291.71,119.8,300,102.09l-.61-.27-7.94,17.84Z"/></g><g class="cls-100"><path class="cls-7" d="M291.42,119.66l7.94-17.84-.61-.27-7.63,18Z"/></g><g class="cls-100"><path class="cls-7" d="M291.12,119.53l7.63-18-.61-.25-7.32,18.11Z"/></g><g class="cls-100"><path class="cls-7" d="M290.82,119.41l7.32-18.11-.62-.25-7,18.24Z"/></g><g class="cls-101"><path class="cls-7" d="M290.52,119.29l7-18.24-.62-.23-6.68,18.35Z"/></g><g class="cls-101"><path class="cls-7" d="M290.22,119.17l6.68-18.35-.63-.22-6.36,18.47Z"/></g><g class="cls-101"><path class="cls-7" d="M289.91,119.07l6.36-18.47-.63-.21-6,18.58Z"/></g><g class="cls-102"><path class="cls-7" d="M289.6,119l6-18.58-.63-.2-5.71,18.68Z"/></g><g class="cls-102"><path class="cls-7" d="M289.3,118.87,295,100.19l-.64-.19L289,118.78Z"/></g><g class="cls-102"><path class="cls-7" d="M289,118.78,294.37,100l-.64-.18-5.06,18.87Z"/></g><g class="cls-103"><path class="cls-7" d="M288.67,118.69l5.06-18.87-.64-.16-4.73,19Z"/></g><g class="cls-103"><path class="cls-7" d="M288.36,118.61l4.73-19-.65-.16-4.39,19Z"/></g><g class="cls-103"><path class="cls-7" d="M288.05,118.54l4.39-19-.65-.14-4.06,19.1Z"/></g><g class="cls-104"><path class="cls-7" d="M287.73,118.46l4.06-19.1-.65-.14-3.73,19.18Z"/></g><g class="cls-104"><path class="cls-7" d="M287.41,118.4l3.73-19.18-.65-.12-3.4,19.24Z"/></g><g class="cls-104"><path class="cls-7" d="M287.09,118.34l3.4-19.24-.66-.11-3.05,19.3Z"/></g><g class="cls-105"><path class="cls-7" d="M286.78,118.29,289.83,99l-.66-.09-2.71,19.34Z"/></g><g class="cls-105"><path class="cls-7" d="M286.46,118.24l2.71-19.34-.65-.09-2.39,19.39Z"/></g><g class="cls-105"><path class="cls-7" d="M286.13,118.2l2.39-19.39-.66-.08-2.05,19.43Z"/></g><g class="cls-105"><path class="cls-7" d="M285.81,118.16l2.05-19.43-.67-.06-1.7,19.46Z"/></g><g class="cls-105"><path class="cls-7" d="M285.49,118.13l1.7-19.46-.66,0-1.36,19.49Z"/></g><g class="cls-105"><path class="cls-7" d="M285.17,118.11l1.36-19.49-.66,0-1,19.5Z"/></g><g class="cls-106"><path class="cls-7" d="M284.85,118.08l1-19.5-.67,0-.68,19.53Z"/></g><g class="cls-106"><path class="cls-7" d="M284.52,118.08l.68-19.53-.66,0-.34,19.54Z"/></g><g class="cls-106"><path class="cls-7" d="M284.2,118.07l.34-19.54h-.66v19.54Z"/></g></g><g class="cls-107"><g class="cls-6"><path class="cls-7" d="M225.38,151.18l12.82,14.74.5-.44L225.63,151Z"/></g><g class="cls-8"><path class="cls-7" d="M225.63,151l13.07,14.52.49-.45-13.33-14.29Z"/></g><g class="cls-8"><path class="cls-7" d="M225.86,150.74,239.19,165l.48-.45L226.1,150.52Z"/></g><g class="cls-8"><path class="cls-7" d="M226.1,150.52l13.57,14.06.47-.47L226.33,150.3Z"/></g><g class="cls-9"><path class="cls-7" d="M226.33,150.3l13.81,13.81.47-.47-14.06-13.58Z"/></g><g class="cls-9"><path class="cls-7" d="M226.55,150.06l14.06,13.58.46-.49-14.29-13.32Z"/></g><g class="cls-9"><path class="cls-7" d="M226.78,149.83l14.29,13.32.45-.49L227,149.59Z"/></g><g class="cls-10"><path class="cls-7" d="M227,149.59l14.52,13.07.44-.49-14.75-12.82Z"/></g><g class="cls-10"><path class="cls-7" d="M227.21,149.35,242,162.17l.43-.51-15-12.56Z"/></g><g class="cls-10"><path class="cls-7" d="M227.42,149.1l15,12.56.42-.51-15.18-12.3Z"/></g><g class="cls-11"><path class="cls-7" d="M227.63,148.85l15.18,12.3.41-.52-15.39-12Z"/></g><g class="cls-11"><path class="cls-7" d="M227.83,148.6l15.39,12,.41-.53L228,148.34C228,148.43,227.89,148.51,227.83,148.6Z"/></g><g class="cls-11"><path class="cls-7" d="M228,148.34l15.6,11.76.39-.53-15.8-11.49Z"/></g><g class="cls-12"><path class="cls-7" d="M228.22,148.08,244,159.57l.39-.54-16-11.21Z"/></g><g class="cls-12"><path class="cls-7" d="M228.41,147.82l16,11.21.38-.55-16.2-10.92Z"/></g><g class="cls-12"><path class="cls-7" d="M228.59,147.56l16.2,10.92.36-.56-16.38-10.64Z"/></g><g class="cls-13"><path class="cls-7" d="M228.77,147.28l16.38,10.64.36-.56L228.94,147Z"/></g><g class="cls-13"><path class="cls-7" d="M228.94,147l16.57,10.35.35-.56-16.75-10.06C229.06,146.83,229,146.92,228.94,147Z"/></g><g class="cls-13"><path class="cls-7" d="M229.11,146.74l16.75,10.06.33-.58-16.92-9.76Z"/></g><g class="cls-14"><path class="cls-7" d="M229.27,146.46l16.92,9.76.33-.57-17.08-9.47Z"/></g><g class="cls-14"><path class="cls-7" d="M229.44,146.18l17.08,9.47.32-.59-17.25-9.17Z"/></g><g class="cls-14"><path class="cls-7" d="M229.59,145.89l17.25,9.17.31-.59-17.41-8.87Z"/></g><g class="cls-15"><path class="cls-7" d="M229.74,145.6l17.41,8.87.29-.59-17.55-8.56Z"/></g><g class="cls-15"><path class="cls-7" d="M229.89,145.32l17.55,8.56.29-.6L230,145Z"/></g><g class="cls-15"><path class="cls-7" d="M230,145l17.71,8.26.27-.61-17.84-7.94C230.11,144.83,230.07,144.93,230,145Z"/></g><path class="cls-7" d="M230.16,129.65l17.84-8-.27-.6L230,129.35Z"/><path class="cls-7" d="M230,129.35l17.71-8.25-.29-.6-17.55,8.56C229.93,129.16,230,129.25,230,129.35Z"/><path class="cls-7" d="M229.89,129.06l17.55-8.56-.29-.6-17.41,8.87Z"/><g class="cls-16"><path class="cls-7" d="M229.74,128.77l17.41-8.87-.31-.59-17.25,9.17Z"/></g><g class="cls-16"><path class="cls-7" d="M229.59,128.48l17.25-9.17-.32-.58-17.08,9.47Z"/></g><g class="cls-16"><path class="cls-7" d="M229.44,128.2l17.08-9.47-.33-.58-16.92,9.77Z"/></g><g class="cls-17"><path class="cls-7" d="M229.27,127.92l16.92-9.77-.33-.57-16.75,10.06C229.17,127.73,229.22,127.83,229.27,127.92Z"/></g><g class="cls-17"><path class="cls-7" d="M229.11,127.64l16.75-10.06-.35-.57-16.57,10.35Z"/></g><g class="cls-17"><path class="cls-7" d="M228.94,127.36,245.51,117l-.36-.56-16.38,10.64Z"/></g><g class="cls-18"><path class="cls-7" d="M228.77,127.09l16.38-10.64-.36-.55-16.2,10.92Z"/></g><g class="cls-18"><path class="cls-7" d="M228.59,126.82l16.2-10.92-.38-.55-16,11.21Z"/></g><g class="cls-18"><path class="cls-7" d="M228.41,126.56l16-11.21-.39-.54-15.8,11.48Z"/></g><g class="cls-19"><path class="cls-7" d="M228.22,126.29,244,114.81l-.39-.54L228,126Z"/></g><g class="cls-19"><path class="cls-7" d="M228,126l15.6-11.76-.41-.52-15.39,12Z"/></g><g class="cls-19"><path class="cls-7" d="M227.83,125.78l15.39-12-.41-.52-15.18,12.29Z"/></g><g class="cls-20"><path class="cls-7" d="M227.63,125.52l15.18-12.29-.42-.52-15,12.56Z"/></g><g class="cls-20"><path class="cls-7" d="M227.42,125.27l15-12.56-.43-.5L227.21,125Z"/></g><g class="cls-20"><path class="cls-7" d="M227.21,125,242,112.21l-.44-.5L227,124.78Z"/></g><g class="cls-21"><path class="cls-7" d="M227,124.78l14.52-13.07-.45-.49-14.29,13.33Z"/></g><g class="cls-21"><path class="cls-7" d="M226.78,124.55l14.29-13.33-.46-.48-14.06,13.57Z"/></g><g class="cls-21"><path class="cls-7" d="M226.55,124.31l14.06-13.57-.47-.47-13.81,13.81A2.39,2.39,0,0,1,226.55,124.31Z"/></g><g class="cls-22"><path class="cls-7" d="M226.33,124.08l13.81-13.81-.47-.47-13.57,14C226.17,123.93,226.25,124,226.33,124.08Z"/></g><g class="cls-22"><path class="cls-7" d="M226.1,123.85l13.57-14-.48-.46-13.33,14.29Z"/></g><g class="cls-22"><path class="cls-7" d="M225.86,123.63l13.33-14.29-.49-.45-13.07,14.52Z"/></g><g class="cls-23"><path class="cls-7" d="M225.63,123.41l13.07-14.52-.5-.44L225.38,123.2Z"/></g><g class="cls-23"><path class="cls-7" d="M225.38,123.2l12.82-14.75-.51-.43-12.55,15Z"/></g><g class="cls-23"><path class="cls-7" d="M225.14,123l12.55-15-.51-.42-12.29,15.18Z"/></g><g class="cls-24"><path class="cls-7" d="M224.89,122.78l12.29-15.18-.52-.42-12,15.4Z"/></g><g class="cls-24"><path class="cls-7" d="M224.63,122.58l12-15.4-.53-.4-11.75,15.6Z"/></g><g class="cls-24"><path class="cls-7" d="M224.38,122.38l11.75-15.6-.53-.39-11.48,15.8Z"/></g><g class="cls-25"><path class="cls-7" d="M224.12,122.19l11.48-15.8-.54-.39-11.21,16Z"/></g><g class="cls-25"><path class="cls-7" d="M223.85,122l11.21-16-.55-.38-10.92,16.2Z"/></g><g class="cls-25"><path class="cls-7" d="M223.59,121.82l10.92-16.2-.55-.36-10.64,16.38Z"/></g><g class="cls-26"><path class="cls-7" d="M223.32,121.64,234,105.26l-.56-.36L223,121.47A2.61,2.61,0,0,1,223.32,121.64Z"/></g><g class="cls-26"><path class="cls-7" d="M223,121.47,233.4,104.9l-.57-.35L222.77,121.3Z"/></g><g class="cls-26"><path class="cls-7" d="M222.77,121.3l10.06-16.75-.57-.34-9.77,16.92Z"/></g><g class="cls-27"><path class="cls-7" d="M222.49,121.13l9.77-16.92-.58-.32L222.21,121Z"/></g><g class="cls-27"><path class="cls-7" d="M222.21,121l9.47-17.08-.58-.32-9.17,17.25Z"/></g><g class="cls-27"><path class="cls-7" d="M221.93,120.82l9.17-17.25-.59-.31-8.87,17.41Z"/></g><g class="cls-28"><path class="cls-7" d="M221.64,120.67l8.87-17.41-.6-.29-8.56,17.55Z"/></g><g class="cls-28"><path class="cls-7" d="M221.35,120.52,229.91,103l-.6-.29-8.25,17.7Z"/></g><g class="cls-28"><path class="cls-7" d="M221.06,120.38l8.25-17.7-.6-.27-8,17.84Z"/></g><g class="cls-29"><path class="cls-7" d="M220.76,120.25l8-17.84-.61-.27-7.63,18Z"/></g><g class="cls-29"><path class="cls-7" d="M220.47,120.12l7.63-18-.62-.25L220.17,120Z"/></g><g class="cls-29"><path class="cls-7" d="M220.17,120l7.31-18.11-.61-.25-7,18.24Z"/></g><g class="cls-30"><path class="cls-7" d="M219.87,119.88l7-18.24-.63-.23-6.68,18.35Z"/></g><g class="cls-30"><path class="cls-7" d="M219.56,119.76l6.68-18.35-.62-.22-6.36,18.47Z"/></g><g class="cls-30"><path class="cls-7" d="M219.26,119.66l6.36-18.47L225,101l-6,18.57Z"/></g><g class="cls-31"><path class="cls-7" d="M219,119.55,225,101l-.64-.2-5.71,18.68Z"/></g><g class="cls-31"><path class="cls-7" d="M218.64,119.46l5.71-18.68-.63-.19-5.39,18.78C218.43,119.4,218.54,119.42,218.64,119.46Z"/></g><g class="cls-31"><path class="cls-7" d="M218.33,119.37l5.39-18.78-.64-.18L218,119.28Z"/></g><g class="cls-32"><path class="cls-7" d="M218,119.28l5.06-18.87-.65-.17-4.72,19Z"/></g><g class="cls-32"><path class="cls-7" d="M217.71,119.2l4.72-19-.64-.15-4.4,19Z"/></g><g class="cls-32"><path class="cls-7" d="M217.39,119.12l4.4-19-.65-.14-4.06,19.1Z"/></g><g class="cls-33"><path class="cls-7" d="M217.08,119.05l4.06-19.1-.65-.14L216.76,119Z"/></g><g class="cls-33"><path class="cls-7" d="M216.76,119l3.73-19.18-.66-.12-3.39,19.24Z"/></g><g class="cls-33"><path class="cls-7" d="M216.44,118.93l3.39-19.24-.65-.11-3.06,19.3Z"/></g><g class="cls-34"><path class="cls-7" d="M216.12,118.88l3.06-19.3-.66-.1-2.72,19.35Z"/></g><g class="cls-34"><path class="cls-7" d="M215.8,118.83l2.72-19.35-.66-.08-2.38,19.39Z"/></g><g class="cls-34"><path class="cls-7" d="M215.48,118.79l2.38-19.39-.66-.08-2,19.43Z"/></g><g class="cls-35"><path class="cls-7" d="M215.16,118.75l2-19.43-.66-.06-1.7,19.46Z"/></g><g class="cls-35"><path class="cls-7" d="M214.84,118.72l1.7-19.46-.66-.05-1.37,19.49Z"/></g><g class="cls-35"><path class="cls-7" d="M214.51,118.7l1.37-19.49-.67,0-1,19.5Z"/></g><g class="cls-36"><path class="cls-7" d="M214.19,118.67l1-19.5-.66,0-.68,19.52Z"/></g><g class="cls-36"><path class="cls-7" d="M213.87,118.66l.68-19.52-.66,0-.35,19.54Z"/></g><g class="cls-36"><path class="cls-7" d="M213.54,118.66l.35-19.54h-.67v19.54Z"/></g><g class="cls-37"><path class="cls-7" d="M213.22,118.65V99.11h-.66l.34,19.54Z"/></g><g class="cls-37"><path class="cls-7" d="M212.9,118.66l-.34-19.54-.67,0,.68,19.52Z"/></g><g class="cls-37"><path class="cls-7" d="M212.57,118.66l-.68-19.52-.66,0,1,19.5Z"/></g><g class="cls-38"><path class="cls-7" d="M212.25,118.67l-1-19.5-.66,0,1.36,19.49Z"/></g><g class="cls-38"><path class="cls-7" d="M211.93,118.7l-1.36-19.49-.67.05,1.71,19.46Z"/></g><g class="cls-38"><path class="cls-7" d="M211.61,118.72,209.9,99.26l-.66.06,2,19.43Z"/></g><g class="cls-39"><path class="cls-7" d="M211.28,118.75l-2-19.43-.66.08L211,118.79Z"/></g><g class="cls-39"><path class="cls-7" d="M211,118.79,208.58,99.4l-.66.08,2.72,19.35Z"/></g><g class="cls-39"><path class="cls-7" d="M210.64,118.83l-2.72-19.35-.66.1,3.06,19.3Z"/></g><g class="cls-40"><path class="cls-7" d="M210.32,118.88l-3.06-19.3-.65.11L210,118.93Z"/></g><g class="cls-40"><path class="cls-7" d="M210,118.93l-3.39-19.24-.65.12L209.68,119Z"/></g><g class="cls-40"><path class="cls-7" d="M209.68,119,206,99.81l-.66.14,4.07,19.1Z"/></g><g class="cls-41"><path class="cls-7" d="M209.37,119.05,205.3,100l-.64.14,4.39,19Z"/></g><g class="cls-41"><path class="cls-7" d="M209.05,119.12l-4.39-19-.65.15,4.73,19Z"/></g><g class="cls-41"><path class="cls-7" d="M208.74,119.2l-4.73-19-.64.17,5,18.87Z"/></g><g class="cls-42"><path class="cls-7" d="M208.42,119.28l-5-18.87-.64.18,5.38,18.78Z"/></g><g class="cls-42"><path class="cls-7" d="M208.11,119.37l-5.38-18.78-.64.19,5.71,18.68C207.9,119.42,208,119.4,208.11,119.37Z"/></g><g class="cls-42"><path class="cls-7" d="M207.8,119.46l-5.71-18.68-.63.2,6,18.57Z"/></g><g class="cls-43"><path class="cls-7" d="M207.49,119.55l-6-18.57-.63.21,6.36,18.47Z"/></g><g class="cls-43"><path class="cls-7" d="M207.19,119.66l-6.36-18.47-.63.22,6.68,18.35Z"/></g><g class="cls-43"><path class="cls-7" d="M206.88,119.76l-6.68-18.35-.62.23,7,18.24Z"/></g><g class="cls-44"><path class="cls-7" d="M206.58,119.88l-7-18.24-.62.25L206.28,120Z"/></g><g class="cls-44"><path class="cls-7" d="M206.28,120,199,101.89l-.62.25,7.64,18Z"/></g><g class="cls-44"><path class="cls-7" d="M206,120.12l-7.64-18-.61.27,8,17.84Z"/></g><g class="cls-45"><path class="cls-7" d="M205.68,120.25l-8-17.84-.6.27,8.26,17.7Z"/></g><g class="cls-45"><path class="cls-7" d="M205.39,120.38l-8.26-17.7-.6.29,8.56,17.55Z"/></g><g class="cls-45"><path class="cls-7" d="M205.09,120.52,196.53,103l-.59.29,8.86,17.41Z"/></g><g class="cls-46"><path class="cls-7" d="M204.8,120.67l-8.86-17.41-.59.31,9.17,17.25Z"/></g><g class="cls-46"><path class="cls-7" d="M204.52,120.82l-9.17-17.25-.59.32L204.23,121Z"/></g><g class="cls-46"><path class="cls-7" d="M204.23,121l-9.47-17.08-.58.32L204,121.13Z"/></g><g class="cls-47"><path class="cls-7" d="M204,121.13l-9.77-16.92-.57.34,10.06,16.75Z"/></g><g class="cls-47"><path class="cls-7" d="M203.67,121.3l-10.06-16.75-.57.35,10.36,16.57Z"/></g><g class="cls-47"><path class="cls-7" d="M203.4,121.47,193,104.9l-.56.36,10.65,16.38Z"/></g><g class="cls-48"><path class="cls-7" d="M203.13,121.64l-10.65-16.38-.55.36,10.92,16.2Z"/></g><g class="cls-48"><path class="cls-7" d="M202.85,121.82l-10.92-16.2-.55.38,11.21,16Z"/></g><g class="cls-48"><path class="cls-7" d="M202.59,122l-11.21-16-.54.39,11.49,15.8Z"/></g><g class="cls-49"><path class="cls-7" d="M202.33,122.19l-11.49-15.8-.53.39,11.75,15.6Z"/></g><g class="cls-49"><path class="cls-7" d="M202.06,122.38l-11.75-15.6-.53.4,12,15.4Z"/></g><g class="cls-49"><path class="cls-7" d="M201.81,122.58l-12-15.4-.52.42,12.3,15.18Z"/></g><g class="cls-50"><path class="cls-7" d="M201.56,122.78l-12.3-15.18-.51.42,12.56,15Z"/></g><g class="cls-50"><path class="cls-7" d="M201.31,123l-12.56-15-.51.43,12.82,14.75Z"/></g><g class="cls-50"><path class="cls-7" d="M201.06,123.2l-12.82-14.75-.5.44,13.08,14.52Z"/></g><g class="cls-51"><path class="cls-7" d="M200.82,123.41l-13.08-14.52-.49.45,13.33,14.29Z"/></g><g class="cls-51"><path class="cls-7" d="M200.58,123.63l-13.33-14.29-.48.46,13.58,14Z"/></g><g class="cls-51"><path class="cls-7" d="M200.35,123.85l-13.58-14-.47.47,13.81,13.81Z"/></g><g class="cls-52"><path class="cls-7" d="M200.11,124.08,186.3,110.27l-.47.47,14.06,13.57Z"/></g><g class="cls-52"><path class="cls-7" d="M199.89,124.31l-14.06-13.57-.45.48,14.28,13.33Z"/></g><g class="cls-52"><path class="cls-7" d="M199.66,124.55l-14.28-13.33-.45.49,14.51,13.07Z"/></g><g class="cls-53"><path class="cls-7" d="M199.44,124.78l-14.51-13.07-.44.5L199.23,125Z"/></g><g class="cls-53"><path class="cls-7" d="M199.23,125l-14.74-12.82-.44.5,15,12.56Z"/></g><g class="cls-53"><path class="cls-7" d="M199,125.27l-15-12.56-.42.52,15.18,12.29Z"/></g><g class="cls-54"><path class="cls-7" d="M198.81,125.52l-15.18-12.29-.41.52,15.39,12C198.68,125.69,198.75,125.61,198.81,125.52Z"/></g><g class="cls-54"><path class="cls-7" d="M198.61,125.78l-15.39-12-.41.52L198.42,126C198.48,125.94,198.55,125.86,198.61,125.78Z"/></g><g class="cls-54"><path class="cls-7" d="M198.42,126l-15.61-11.76-.39.54,15.8,11.48Z"/></g><g class="cls-55"><path class="cls-7" d="M198.22,126.29l-15.8-11.48-.39.54,16,11.21Z"/></g><g class="cls-55"><path class="cls-7" d="M198,126.56l-16-11.21-.37.55,16.19,10.92A2.48,2.48,0,0,1,198,126.56Z"/></g><g class="cls-55"><path class="cls-7" d="M197.85,126.82,181.66,115.9l-.37.55,16.38,10.64Z"/></g><g class="cls-56"><path class="cls-7" d="M197.67,127.09l-16.38-10.64-.36.56,16.57,10.35C197.56,127.27,197.62,127.18,197.67,127.09Z"/></g><g class="cls-56"><path class="cls-7" d="M197.5,127.36,180.93,117l-.35.57,16.75,10.06Z"/></g><g class="cls-56"><path class="cls-7" d="M197.33,127.64l-16.75-10.06-.33.57,16.92,9.77C197.22,127.83,197.27,127.73,197.33,127.64Z"/></g><g class="cls-57"><path class="cls-7" d="M197.17,127.92l-16.92-9.77-.33.58L197,128.2C197.06,128.11,197.11,128,197.17,127.92Z"/></g><g class="cls-57"><path class="cls-7" d="M197,128.2l-17.09-9.47-.32.58,17.25,9.17C196.9,128.39,197,128.29,197,128.2Z"/></g><g class="cls-57"><path class="cls-7" d="M196.85,128.48l-17.25-9.17-.3.59,17.4,8.87Z"/></g><g class="cls-58"><path class="cls-7" d="M196.7,128.77l-17.4-8.87-.3.6,17.56,8.56C196.6,129,196.65,128.87,196.7,128.77Z"/></g><g class="cls-58"><path class="cls-7" d="M196.56,129.06,179,120.5l-.29.6,17.71,8.25C196.46,129.25,196.51,129.16,196.56,129.06Z"/></g><g class="cls-58"><path class="cls-7" d="M196.42,129.35l-17.71-8.25-.27.6,17.84,8Z"/></g><g class="cls-59"><path class="cls-7" d="M196.28,129.65l-17.84-8-.27.61,18,7.63C196.19,129.84,196.24,129.75,196.28,129.65Z"/></g><g class="cls-59"><path class="cls-7" d="M196.15,129.94l-18-7.63-.25.61L196,130.24Z"/></g><g class="cls-59"><path class="cls-7" d="M196,130.24l-18.11-7.32-.24.62,18.23,7Z"/></g><g class="cls-60"><path class="cls-7" d="M195.91,130.54l-18.23-7-.24.63,18.36,6.68A2.83,2.83,0,0,1,195.91,130.54Z"/></g><g class="cls-60"><path class="cls-7" d="M195.8,130.85l-18.36-6.68-.22.62,18.47,6.36Z"/></g><g class="cls-60"><path class="cls-7" d="M195.69,131.15l-18.47-6.36-.21.63,18.58,6Z"/></g><g class="cls-61"><path class="cls-7" d="M195.59,131.46l-18.58-6-.2.64,18.68,5.71A2.81,2.81,0,0,1,195.59,131.46Z"/></g><g class="cls-61"><path class="cls-7" d="M195.49,131.77l-18.68-5.71-.19.63,18.78,5.39Z"/></g><g class="cls-61"><path class="cls-7" d="M195.4,132.08l-18.78-5.39-.18.64,18.87,5.06Z"/></g><g class="cls-62"><path class="cls-7" d="M195.31,132.39l-18.87-5.06-.16.65,18.95,4.72C195.26,132.6,195.28,132.49,195.31,132.39Z"/></g><g class="cls-62"><path class="cls-7" d="M195.23,132.7,176.28,128l-.16.64,19,4.4C195.18,132.91,195.2,132.81,195.23,132.7Z"/></g><g class="cls-62"><path class="cls-7" d="M195.16,133l-19-4.4-.14.65,19.11,4.06C195.11,133.23,195.13,133.12,195.16,133Z"/></g><g class="cls-63"><path class="cls-7" d="M195.09,133.33,176,129.27l-.13.65L195,133.65C195,133.54,195.06,133.44,195.09,133.33Z"/></g><g class="cls-63"><path class="cls-7" d="M195,133.65l-19.17-3.73-.12.66L195,134C195,133.86,195,133.76,195,133.65Z"/></g><g class="cls-63"><path class="cls-7" d="M195,134l-19.24-3.39-.11.65,19.29,3.06Z"/></g><g class="cls-64"><path class="cls-7" d="M194.91,134.29l-19.29-3.06-.1.66,19.34,2.72C194.88,134.5,194.89,134.39,194.91,134.29Z"/></g><g class="cls-64"><path class="cls-7" d="M194.86,134.61l-19.34-2.72-.09.66,19.39,2.38C194.84,134.82,194.85,134.71,194.86,134.61Z"/></g><g class="cls-64"><path class="cls-7" d="M194.82,134.93l-19.39-2.38-.07.66,19.42,2C194.79,135.14,194.81,135,194.82,134.93Z"/></g><g class="cls-65"><path class="cls-7" d="M194.78,135.25l-19.42-2-.07.66,19.47,1.7C194.76,135.46,194.77,135.36,194.78,135.25Z"/></g><g class="cls-65"><path class="cls-7" d="M194.76,135.57l-19.47-1.7,0,.66,19.49,1.36Z"/></g><g class="cls-65"><path class="cls-7" d="M194.73,135.89l-19.49-1.36,0,.67,19.51,1C194.71,136.11,194.72,136,194.73,135.89Z"/></g><g class="cls-66"><path class="cls-7" d="M194.71,136.22l-19.51-1,0,.66,19.53.68C194.7,136.43,194.7,136.32,194.71,136.22Z"/></g><g class="cls-66"><path class="cls-7" d="M194.7,136.54l-19.53-.68,0,.66,19.54.34C194.69,136.76,194.69,136.65,194.7,136.54Z"/></g><g class="cls-66"><path class="cls-7" d="M194.68,137.19c0-.11,0-.22,0-.33l-19.54-.34v.67Z"/></g><g class="cls-67"><path class="cls-7" d="M194.68,137.19H175.15v.66l19.54-.34C194.69,137.4,194.68,137.3,194.68,137.19Z"/></g><g class="cls-67"><path class="cls-7" d="M194.69,137.51l-19.54.34,0,.67,19.53-.69C194.69,137.73,194.69,137.62,194.69,137.51Z"/></g><g class="cls-67"><path class="cls-7" d="M194.7,137.83l-19.53.69,0,.66,19.51-1C194.7,138.05,194.7,137.94,194.7,137.83Z"/></g><g class="cls-68"><path class="cls-7" d="M194.71,138.16l-19.51,1,0,.66,19.49-1.36C194.72,138.37,194.71,138.27,194.71,138.16Z"/></g><g class="cls-68"><path class="cls-7" d="M194.73,138.48l-19.49,1.36,0,.67,19.47-1.71Z"/></g><g class="cls-68"><path class="cls-7" d="M194.76,138.8l-19.47,1.71.07.66,19.42-2C194.77,139,194.76,138.91,194.76,138.8Z"/></g><g class="cls-69"><path class="cls-7" d="M194.78,139.13l-19.42,2,.07.66,19.39-2.38C194.81,139.34,194.79,139.23,194.78,139.13Z"/></g><g class="cls-69"><path class="cls-7" d="M194.82,139.45l-19.39,2.38.09.66,19.34-2.72A3.11,3.11,0,0,0,194.82,139.45Z"/></g><g class="cls-69"><path class="cls-7" d="M194.86,139.77l-19.34,2.72.1.65,19.29-3C194.89,140,194.88,139.87,194.86,139.77Z"/></g><g class="cls-70"><path class="cls-7" d="M194.91,140.09l-19.29,3,.11.66L195,140.41Z"/></g><g class="cls-70"><path class="cls-7" d="M195,140.41l-19.24,3.39.12.65L195,140.73C195,140.62,195,140.51,195,140.41Z"/></g><g class="cls-70"><path class="cls-7" d="M195,140.73l-19.17,3.72.13.65L195.09,141C195.06,140.94,195,140.83,195,140.73Z"/></g><g class="cls-71"><path class="cls-7" d="M195.09,141,176,145.1l.14.65,19-4.39C195.13,141.25,195.11,141.15,195.09,141Z"/></g><g class="cls-71"><path class="cls-7" d="M195.16,141.36l-19,4.39.16.65,18.95-4.73C195.2,141.57,195.18,141.46,195.16,141.36Z"/></g><g class="cls-71"><path class="cls-7" d="M195.23,141.67l-18.95,4.73.16.64,18.87-5Z"/></g><g class="cls-72"><path class="cls-7" d="M195.31,142l-18.87,5,.18.64,18.78-5.38Z"/></g><g class="cls-72"><path class="cls-7" d="M195.4,142.3l-18.78,5.38.19.64,18.68-5.71Z"/></g><g class="cls-72"><path class="cls-7" d="M195.49,142.61l-18.68,5.71.2.63,18.58-6C195.55,142.81,195.52,142.71,195.49,142.61Z"/></g><g class="cls-73"><path class="cls-7" d="M195.59,142.92,177,149l.21.63,18.47-6.36C195.66,143.12,195.62,143,195.59,142.92Z"/></g><g class="cls-73"><path class="cls-7" d="M195.69,143.22l-18.47,6.36.22.63,18.36-6.68C195.76,143.43,195.73,143.33,195.69,143.22Z"/></g><g class="cls-73"><path class="cls-7" d="M195.8,143.53l-18.36,6.68.24.62,18.23-7C195.87,143.73,195.83,143.63,195.8,143.53Z"/></g><g class="cls-74"><path class="cls-7" d="M195.91,143.83l-18.23,7,.24.62L196,144.13Z"/></g><g class="cls-74"><path class="cls-7" d="M196,144.13l-18.11,7.32.25.61,18-7.63Z"/></g><g class="cls-74"><path class="cls-7" d="M196.15,144.43l-18,7.63.27.61,17.84-7.94Z"/></g><g class="cls-75"><path class="cls-7" d="M196.28,144.73l-17.84,7.94.27.61L196.42,145C196.37,144.93,196.33,144.83,196.28,144.73Z"/></g><g class="cls-75"><path class="cls-7" d="M196.42,145l-17.71,8.26.29.6,17.56-8.56C196.51,145.22,196.46,145.12,196.42,145Z"/></g><g class="cls-75"><path class="cls-7" d="M196.56,145.32,179,153.88l.3.59,17.4-8.87C196.65,145.51,196.6,145.41,196.56,145.32Z"/></g><g class="cls-76"><path class="cls-7" d="M196.7,145.6l-17.4,8.87.3.59,17.25-9.17Z"/></g><g class="cls-76"><path class="cls-7" d="M196.85,145.89l-17.25,9.17.32.59L197,146.18Z"/></g><g class="cls-76"><path class="cls-7" d="M197,146.18l-17.09,9.47.33.57,16.92-9.76Z"/></g><g class="cls-77"><path class="cls-7" d="M197.17,146.46l-16.92,9.76.33.58,16.75-10.06Z"/></g><g class="cls-77"><path class="cls-7" d="M197.33,146.74,180.58,156.8l.35.56L197.5,147C197.44,146.92,197.38,146.83,197.33,146.74Z"/></g><g class="cls-77"><path class="cls-7" d="M197.5,147l-16.57,10.35.36.56,16.38-10.64C197.62,147.19,197.56,147.1,197.5,147Z"/></g><g class="cls-78"><path class="cls-7" d="M197.67,147.28l-16.38,10.64.37.56,16.19-10.92Z"/></g><g class="cls-78"><path class="cls-7" d="M197.85,147.56l-16.19,10.92.37.55,16-11.21Z"/></g><g class="cls-78"><path class="cls-7" d="M198,147.82,182,159l.39.54,15.8-11.49Z"/></g><g class="cls-79"><path class="cls-7" d="M198.22,148.08l-15.8,11.49.39.53,15.61-11.76C198.35,148.26,198.29,148.17,198.22,148.08Z"/></g><g class="cls-79"><path class="cls-7" d="M198.42,148.34,182.81,160.1l.41.53,15.39-12Z"/></g><g class="cls-79"><path class="cls-7" d="M198.61,148.6l-15.39,12,.41.52,15.18-12.3Z"/></g><g class="cls-80"><path class="cls-7" d="M198.81,148.85l-15.18,12.3.42.51,15-12.56Z"/></g><g class="cls-80"><path class="cls-7" d="M199,149.1l-15,12.56.44.51,14.74-12.82Z"/></g><g class="cls-80"><path class="cls-7" d="M199.23,149.35l-14.74,12.82.44.49,14.51-13.07Z"/></g><g class="cls-81"><path class="cls-7" d="M199.44,149.59l-14.51,13.07.45.49,14.28-13.32Z"/></g><g class="cls-81"><path class="cls-7" d="M199.66,149.83l-14.28,13.32.45.49,14.06-13.58Z"/></g><g class="cls-81"><path class="cls-7" d="M199.89,150.06l-14.06,13.58.47.47,13.81-13.81Z"/></g><g class="cls-82"><path class="cls-7" d="M200.11,150.3,186.3,164.11l.47.47,13.58-14.06Z"/></g><g class="cls-82"><path class="cls-7" d="M200.35,150.52l-13.58,14.06.48.45,13.33-14.29A2.39,2.39,0,0,1,200.35,150.52Z"/></g><g class="cls-82"><path class="cls-7" d="M200.58,150.74,187.25,165l.49.45L200.82,151Z"/></g><g class="cls-83"><path class="cls-7" d="M200.82,151l-13.08,14.52.5.44,12.82-14.74Z"/></g><g class="cls-83"><path class="cls-7" d="M201.06,151.18l-12.82,14.74.51.43,12.56-15Z"/></g><g class="cls-83"><path class="cls-7" d="M201.31,151.39l-12.56,15,.51.43,12.3-15.19A2.43,2.43,0,0,1,201.31,151.39Z"/></g><g class="cls-84"><path class="cls-7" d="M201.56,151.59l-12.3,15.19.52.41,12-15.4A2.43,2.43,0,0,1,201.56,151.59Z"/></g><g class="cls-84"><path class="cls-7" d="M201.81,151.79l-12,15.4.53.41L202.06,152Z"/></g><g class="cls-84"><path class="cls-7" d="M202.06,152,190.31,167.6l.53.39,11.49-15.81Z"/></g><g class="cls-85"><path class="cls-7" d="M202.33,152.18,190.84,168l.54.39,11.21-16A2.48,2.48,0,0,1,202.33,152.18Z"/></g><g class="cls-85"><path class="cls-7" d="M202.59,152.37l-11.21,16,.55.37,10.92-16.19Z"/></g><g class="cls-86"><path class="cls-7" d="M218.33,155l5.39,18.78.63-.19-5.71-18.68Z"/></g><g class="cls-86"><path class="cls-7" d="M218.64,154.92l5.71,18.68.64-.2-6-18.58Z"/></g><g class="cls-87"><path class="cls-7" d="M219,154.82l6,18.58.63-.21-6.36-18.47Z"/></g><g class="cls-87"><path class="cls-7" d="M219.26,154.72l6.36,18.47.62-.22-6.68-18.36Z"/></g><g class="cls-87"><path class="cls-7" d="M219.56,154.61,226.24,173l.63-.24-7-18.23Z"/></g><g class="cls-87"><path class="cls-7" d="M219.87,154.5l7,18.23.61-.24-7.31-18.11Z"/></g><g class="cls-87"><path class="cls-7" d="M220.17,154.38l7.31,18.11.62-.25-7.63-18Z"/></g><g class="cls-87"><path class="cls-7" d="M220.47,154.26l7.63,18,.61-.27-8-17.85Z"/></g><g class="cls-88"><path class="cls-7" d="M220.76,154.12l8,17.85.6-.28L221.06,154Z"/></g><g class="cls-88"><path class="cls-7" d="M221.06,154l8.25,17.7.6-.28-8.56-17.56Z"/></g><g class="cls-88"><path class="cls-7" d="M221.35,153.85l8.56,17.56.6-.3-8.87-17.4Z"/></g><g class="cls-88"><path class="cls-7" d="M221.64,153.71l8.87,17.4.59-.3-9.17-17.25Z"/></g><g class="cls-88"><path class="cls-7" d="M221.93,153.56l9.17,17.25.58-.32-9.47-17.09Z"/></g><g class="cls-88"><path class="cls-7" d="M222.21,153.4l9.47,17.09.58-.33-9.77-16.92Z"/></g><g class="cls-89"><path class="cls-7" d="M222.49,153.24l9.77,16.92.57-.34-10.06-16.74Z"/></g><g class="cls-89"><path class="cls-7" d="M222.77,153.08l10.06,16.74.57-.34L223,152.91Z"/></g><g class="cls-89"><path class="cls-7" d="M223,152.91l10.36,16.57.56-.36-10.64-16.39Z"/></g><g class="cls-90"><path class="cls-7" d="M223.32,152.73,234,169.12l.55-.37-10.92-16.19Z"/></g><g class="cls-90"><path class="cls-7" d="M223.59,152.56l10.92,16.19.55-.37-11.21-16Z"/></g><g class="cls-90"><path class="cls-7" d="M223.85,152.37l11.21,16,.54-.39-11.48-15.81Z"/></g><g class="cls-91"><path class="cls-7" d="M224.12,152.18,235.6,168l.53-.39L224.38,152Z"/></g><g class="cls-91"><path class="cls-7" d="M224.38,152l11.75,15.61.53-.41-12-15.4Z"/></g><g class="cls-91"><path class="cls-7" d="M224.63,151.79l12,15.4.52-.41-12.29-15.19Z"/></g><g class="cls-6"><path class="cls-7" d="M224.89,151.59l12.29,15.19.51-.43-12.55-15Z"/></g><g class="cls-6"><path class="cls-7" d="M225.14,151.39l12.55,15,.51-.43-12.82-14.74Z"/></g><g class="cls-92"><path class="cls-7" d="M213.22,155.73v19.53h.67l-.35-19.54Z"/></g><g class="cls-92"><path class="cls-7" d="M213.54,155.72l.35,19.54.66,0-.68-19.53Z"/></g><g class="cls-92"><path class="cls-7" d="M213.87,155.71l.68,19.53.66,0-1-19.51Z"/></g><g class="cls-93"><path class="cls-7" d="M214.19,155.7l1,19.51.67,0-1.37-19.49Z"/></g><g class="cls-93"><path class="cls-7" d="M214.51,155.68l1.37,19.49.66,0-1.7-19.47Z"/></g><g class="cls-93"><path class="cls-7" d="M214.84,155.65l1.7,19.47.66-.07-2-19.42Z"/></g><g class="cls-94"><path class="cls-7" d="M215.16,155.63l2,19.42.66-.07-2.38-19.39Z"/></g><g class="cls-94"><path class="cls-7" d="M215.48,155.59,217.86,175l.66-.09-2.72-19.35Z"/></g><g class="cls-94"><path class="cls-7" d="M215.8,155.54l2.72,19.35.66-.1-3.06-19.29Z"/></g><g class="cls-95"><path class="cls-7" d="M216.12,155.5l3.06,19.29.65-.11-3.39-19.24Z"/></g><g class="cls-95"><path class="cls-7" d="M216.44,155.44l3.39,19.24.66-.12-3.73-19.17Z"/></g><g class="cls-95"><path class="cls-7" d="M216.76,155.39l3.73,19.17.65-.13-4.06-19.11Z"/></g><g class="cls-96"><path class="cls-7" d="M217.08,155.32l4.06,19.11.65-.14-4.4-19Z"/></g><g class="cls-96"><path class="cls-7" d="M217.39,155.25l4.4,19,.64-.16-4.72-18.95Z"/></g><g class="cls-96"><path class="cls-7" d="M217.71,155.18l4.72,18.95.65-.17L218,155.1Z"/></g><g class="cls-86"><path class="cls-7" d="M218,155.1,223.08,174l.64-.17L218.33,155Z"/></g><g class="cls-85"><path class="cls-7" d="M202.85,152.56l-10.92,16.19.55.37,10.65-16.39A2.61,2.61,0,0,1,202.85,152.56Z"/></g><g class="cls-97"><path class="cls-7" d="M203.13,152.73l-10.65,16.39.56.36,10.36-16.57Z"/></g><g class="cls-97"><path class="cls-7" d="M203.4,152.91,193,169.48l.57.34,10.06-16.74Z"/></g><g class="cls-97"><path class="cls-7" d="M203.67,153.08l-10.06,16.74.57.34L204,153.24Z"/></g><g class="cls-98"><path class="cls-7" d="M204,153.24l-9.77,16.92.58.33,9.47-17.09Z"/></g><g class="cls-98"><path class="cls-7" d="M204.23,153.4l-9.47,17.09.59.32,9.17-17.25Z"/></g><g class="cls-98"><path class="cls-7" d="M204.52,153.56l-9.17,17.25.59.3,8.86-17.4Z"/></g><g class="cls-99"><path class="cls-7" d="M204.8,153.71l-8.86,17.4.59.3,8.56-17.56Z"/></g><g class="cls-99"><path class="cls-7" d="M205.09,153.85l-8.56,17.56.6.28,8.26-17.7Z"/></g><g class="cls-99"><path class="cls-7" d="M205.39,154l-8.26,17.7.6.28,8-17.85Z"/></g><g class="cls-100"><path class="cls-7" d="M205.68,154.12l-8,17.85.61.27,7.64-18Z"/></g><g class="cls-100"><path class="cls-7" d="M206,154.26l-7.64,18,.62.25,7.32-18.11Z"/></g><g class="cls-100"><path class="cls-7" d="M206.28,154.38,199,172.49l.62.24,7-18.23Z"/></g><g class="cls-101"><path class="cls-7" d="M206.58,154.5l-7,18.23.62.24,6.68-18.36Z"/></g><g class="cls-101"><path class="cls-7" d="M206.88,154.61,200.2,173l.63.22,6.36-18.47Z"/></g><g class="cls-101"><path class="cls-7" d="M207.19,154.72l-6.36,18.47.63.21,6-18.58Z"/></g><g class="cls-102"><path class="cls-7" d="M207.49,154.82l-6,18.58.63.2,5.71-18.68Z"/></g><g class="cls-102"><path class="cls-7" d="M207.8,154.92l-5.71,18.68.64.19L208.11,155Z"/></g><g class="cls-102"><path class="cls-7" d="M208.11,155l-5.38,18.78.64.17,5-18.86Z"/></g><g class="cls-103"><path class="cls-7" d="M208.42,155.1l-5,18.86.64.17,4.73-18.95Z"/></g><g class="cls-103"><path class="cls-7" d="M208.74,155.18,204,174.13l.65.16,4.39-19Z"/></g><g class="cls-103"><path class="cls-7" d="M209.05,155.25l-4.39,19,.64.14,4.07-19.11Z"/></g><g class="cls-104"><path class="cls-7" d="M209.37,155.32l-4.07,19.11.66.13,3.72-19.17Z"/></g><g class="cls-104"><path class="cls-7" d="M209.68,155.39,206,174.56l.65.12L210,155.44Z"/></g><g class="cls-104"><path class="cls-7" d="M210,155.44l-3.39,19.24.65.11,3.06-19.29Z"/></g><g class="cls-105"><path class="cls-7" d="M210.32,155.5l-3.06,19.29.66.1,2.72-19.35Z"/></g><g class="cls-105"><path class="cls-7" d="M210.64,155.54l-2.72,19.35.66.09L211,155.59Z"/></g><g class="cls-105"><path class="cls-7" d="M211,155.59,208.58,175l.66.07,2-19.42Z"/></g><g class="cls-105"><path class="cls-7" d="M211.28,155.63l-2,19.42.66.07,1.71-19.47Z"/></g><g class="cls-105"><path class="cls-7" d="M211.61,155.65l-1.71,19.47.67,0,1.36-19.49Z"/></g><g class="cls-105"><path class="cls-7" d="M211.93,155.68l-1.36,19.49.66,0,1-19.51Z"/></g><g class="cls-106"><path class="cls-7" d="M212.25,155.7l-1,19.51.66,0,.68-19.53Z"/></g><g class="cls-106"><path class="cls-7" d="M212.57,155.71l-.68,19.53.67,0,.34-19.54Z"/></g><g class="cls-106"><path class="cls-7" d="M212.9,155.72l-.34,19.54h.66V155.73Z"/></g></g><path class="cls-4" d="M453.55,14.82a1.13,1.13,0,0,1,.57-.53,1.23,1.23,0,0,1,.44-.08,1.86,1.86,0,0,1,.33,0,.78.78,0,0,1,.5.47.76.76,0,0,1,0,.66,43.76,43.76,0,0,1-3.23,4.93.92.92,0,0,0-.16.53v15.4a.88.88,0,0,1-.29.67,1,1,0,0,1-.68.25.88.88,0,0,1-.93-.92v-13a.14.14,0,0,0-.08-.12.1.1,0,0,0-.13,0,39.68,39.68,0,0,1-4,4,1.15,1.15,0,0,1-.75.23,1,1,0,0,1-.7-.35.8.8,0,0,1-.29-.65.76.76,0,0,1,.33-.64,36.75,36.75,0,0,0,5-5A41,41,0,0,0,453.55,14.82Zm-7,34.71a1.37,1.37,0,0,1-.77.24,1.39,1.39,0,0,1-.81-.28.63.63,0,0,1-.28-.54.64.64,0,0,1,.28-.55,13.45,13.45,0,0,0,4.77-7.27.86.86,0,0,1,.42-.57.85.85,0,0,1,.71-.08.9.9,0,0,1,.55.48.94.94,0,0,1,.06.73Q449.71,47.12,446.52,49.53Zm13.13-.64h8.69a2,2,0,0,0,1.82-.69,7.66,7.66,0,0,0,.57-3.19.6.6,0,0,1,.34-.49.77.77,0,0,1,.63,0,1.23,1.23,0,0,1,.89,1.17,6.46,6.46,0,0,1-1.09,4.12,4,4,0,0,1-3.08,1h-8.77a8,8,0,0,1-3.78-.6c-.63-.41-.94-1.27-.94-2.59V40.44a1,1,0,0,1,1-1,1,1,0,0,1,.7.28.93.93,0,0,1,.31.69v7.19c0,.55.16.89.5,1A7.19,7.19,0,0,0,459.65,48.89Zm8.05-28.38c0-.18-.11-.28-.33-.28h-6.1a.49.49,0,0,0-.44.24,28.44,28.44,0,0,1-3.6,4.73,1.08,1.08,0,0,1-.71.31,1.05,1.05,0,0,1-.75-.27.86.86,0,0,1-.32-.6.75.75,0,0,1,.24-.65,25.69,25.69,0,0,0,5.9-9,1.22,1.22,0,0,1,.53-.61,1.14,1.14,0,0,1,.52-.12,1,1,0,0,1,.25,0,.8.8,0,0,1,.54.43.75.75,0,0,1,0,.7q-.65,1.55-1.29,2.79a.19.19,0,0,0,0,.18.15.15,0,0,0,.16.1h16.89a.17.17,0,0,0,.13,0,1.38,1.38,0,0,1,.64,0l.33.12a.6.6,0,0,1,.38.33.54.54,0,0,1,0,.48q-1.91,4.29-2.71,5.78a1,1,0,0,1-.93.61,1.12,1.12,0,0,1-.32,0,.58.58,0,0,1-.47-.34.62.62,0,0,1,0-.59c.65-1.3,1.3-2.72,1.94-4.29a.14.14,0,0,0,0-.16.22.22,0,0,0-.18-.08h-8.12a.25.25,0,0,0-.28.28V34.74a2.87,2.87,0,0,1-.27,1.4,1.67,1.67,0,0,1-.95.7,16.57,16.57,0,0,1-4.16.32,1.31,1.31,0,0,1-1.25-.92.56.56,0,0,1,.06-.57.55.55,0,0,1,.5-.28h1.9c.75,0,1.27,0,1.54,0a1,1,0,0,0,.56-.12.54.54,0,0,0,.17-.45Zm-6.19,4.69a1.15,1.15,0,0,1,.55-.6,1,1,0,0,1,.79-.08.79.79,0,0,1,.58.42.77.77,0,0,1,0,.71,26.58,26.58,0,0,1-4.52,7,1.09,1.09,0,0,1-.71.32,1.16,1.16,0,0,1-.79-.2.68.68,0,0,1-.35-.57.77.77,0,0,1,.23-.6A21.56,21.56,0,0,0,461.51,25.2Zm5.05,16a.94.94,0,0,1,.29.68.93.93,0,0,1-.29.69,1,1,0,0,1-.68.24.94.94,0,0,1-.69-.28,26.31,26.31,0,0,0-5.9-3.92.67.67,0,0,1-.35-.49.52.52,0,0,1,.19-.52,1.35,1.35,0,0,1,.93-.41,1.34,1.34,0,0,1,.6.17A25,25,0,0,1,466.56,41.17Zm6.39,0a.76.76,0,0,1-.24-.53.68.68,0,0,1,.32-.61,1.54,1.54,0,0,1,.73-.2,1.34,1.34,0,0,1,.85.33,30.82,30.82,0,0,1,6.46,7.43,1.12,1.12,0,0,1,.13.49.78.78,0,0,1-.05.28.85.85,0,0,1-.48.65.76.76,0,0,1-.49.16.67.67,0,0,1-.24,0,1,1,0,0,1-.6-.49,26.07,26.07,0,0,0-2.75-3.81A32.29,32.29,0,0,0,473,41.21Zm.24-15.64a.68.68,0,0,1-.12-.61.61.61,0,0,1,.41-.44,1.17,1.17,0,0,1,.52-.13,1.07,1.07,0,0,1,.85.49A38.53,38.53,0,0,1,479,32a.89.89,0,0,1,0,.75,1,1,0,0,1-.52.55.88.88,0,0,1-.71,0,1.05,1.05,0,0,1-.51-.53A39.28,39.28,0,0,0,473.19,25.57Z"/><path class="cls-4" d="M498,14.9a1.09,1.09,0,0,1,.51-.67,1.12,1.12,0,0,1,.79-.14,1,1,0,0,1,.64.48,1,1,0,0,1,.09.81c-.73,2.1-1.33,3.75-1.78,4.93a.19.19,0,0,0,0,.19.24.24,0,0,0,.19.1H503A2.34,2.34,0,0,1,505.34,23v21.7A2.36,2.36,0,0,1,503,47.07h-9.1a.28.28,0,0,0-.32.32v2.14a.9.9,0,0,1-.27.67.87.87,0,0,1-.64.26,1,1,0,0,1-.67-.26.88.88,0,0,1-.28-.67V23a2.32,2.32,0,0,1,.7-1.7,2.38,2.38,0,0,1,1.68-.68H496a.39.39,0,0,0,.41-.29A54,54,0,0,0,498,14.9Zm5.14,17.42c.18,0,.28-.11.28-.33V22.7a.26.26,0,0,0-.28-.29h-9.3c-.22,0-.32.1-.32.29V32c0,.22.1.33.32.33Zm-9.62,12.6c0,.2.1.29.32.29h9.3a.25.25,0,0,0,.28-.29V34.42a.26.26,0,0,0-.28-.29h-9.3c-.22,0-.32.1-.32.29ZM523.28,20.6a2.35,2.35,0,0,1,1.7.68,2.26,2.26,0,0,1,.65,1.58,179.91,179.91,0,0,1-1.13,19.48q-.57,5.46-1.78,6.83a3.87,3.87,0,0,1-2.87,1.29c-.49,0-1.05,0-1.7,0-.92,0-2,0-3.23-.08a1.36,1.36,0,0,1-1.25-1.09.63.63,0,0,1,.05-.61.52.52,0,0,1,.51-.24c1.88.11,3.57.16,5,.16A2.07,2.07,0,0,0,521,48c.7-.75,1.25-3,1.63-6.71s.76-9.92,1.08-18.59c0-.19-.11-.29-.32-.29h-11a.44.44,0,0,0-.44.29,39.79,39.79,0,0,1-3.36,6.58,1,1,0,0,1-.64.41,1,1,0,0,1-.77-.16.86.86,0,0,1-.4-.57.58.58,0,0,1,0-.2,1,1,0,0,1,.17-.53,40.42,40.42,0,0,0,5.53-13.62.91.91,0,0,1,.45-.6.89.89,0,0,1,.52-.16h.25a1,1,0,0,1,.72,1.21q-.69,2.74-1.53,5.21a.19.19,0,0,0,0,.19.24.24,0,0,0,.19.1Zm-4.52,17.66a1,1,0,0,1,.16.52,1,1,0,0,1,0,.24,1,1,0,0,1-.45.65.84.84,0,0,1-.48.16.67.67,0,0,1-.24,0,1,1,0,0,1-.61-.44,62.76,62.76,0,0,0-5.62-8.09.71.71,0,0,1-.16-.48.79.79,0,0,1,.36-.69,1.46,1.46,0,0,1,.57-.12h.2a1.05,1.05,0,0,1,.65.41A67.58,67.58,0,0,1,518.76,38.26Z"/><path class="cls-4" d="M542.65,15.18a1,1,0,0,1,.47-.61.93.93,0,0,1,.75-.08.84.84,0,0,1,.55.43.85.85,0,0,1,.05.7,48.4,48.4,0,0,1-2.54,6.55,1.46,1.46,0,0,0-.12.57V50.42a.91.91,0,0,1-.29.65.88.88,0,0,1-.66.28.85.85,0,0,1-.65-.28.91.91,0,0,1-.26-.65v-24c0-.06,0-.09-.06-.1s-.08,0-.11.05a45.14,45.14,0,0,1-3.55,5.38.74.74,0,0,1-.63.27.69.69,0,0,1-.58-.39,1.41,1.41,0,0,1-.29-.81,1.43,1.43,0,0,1,.37-.93A44.24,44.24,0,0,0,542.65,15.18Zm8.49,14a1.26,1.26,0,0,1,.61,0l.24,0a.66.66,0,0,1,.53.73,45.08,45.08,0,0,1-3.2,13.5.47.47,0,0,0,.08.52,10.67,10.67,0,0,0,5,3.71,22.32,22.32,0,0,0,7.4,1.06h10.35a.49.49,0,0,1,.5.27.59.59,0,0,1,.06.58,1.36,1.36,0,0,1-1.33,1h-9.58a25.45,25.45,0,0,1-8-1.07,11.44,11.44,0,0,1-5.34-3.7c-.1-.16-.21-.14-.32,0a18.84,18.84,0,0,1-3.88,4.85.84.84,0,0,1-.57.21h-.12a.85.85,0,0,1-.6-.37.77.77,0,0,1-.25-.56.94.94,0,0,1,.29-.69,17.64,17.64,0,0,0,4-5.13.53.53,0,0,0,0-.53,30.29,30.29,0,0,1-2.63-7.52,1,1,0,0,1,.61-1.13.68.68,0,0,1,.63.07.76.76,0,0,1,.38.5,26,26,0,0,0,1.94,6,.13.13,0,0,0,.14.08c.07,0,.1,0,.1-.08a42.88,42.88,0,0,0,2.51-10.39c0-.18-.06-.28-.25-.28h-4a.38.38,0,0,0-.36.24l-.49,1a1,1,0,0,1-.93.65,1.71,1.71,0,0,1-.36,0,.65.65,0,0,1-.46-.38.67.67,0,0,1,0-.63q2.46-5.05,5.49-12.21a.13.13,0,0,0,0-.18.23.23,0,0,0-.19-.1h-3.92a.85.85,0,0,1-.62-.26.86.86,0,0,1-.27-.63.92.92,0,0,1,.89-.89h5.17a1,1,0,0,1,.61,0l.36.12a.61.61,0,0,1,.37.35.55.55,0,0,1,0,.5q-2.46,5.82-4.69,10.51a.19.19,0,0,0,0,.18.17.17,0,0,0,.14.1h3.88ZM570.42,23a.25.25,0,0,0,.28.28h1.58a.77.77,0,0,1,.6.27.82.82,0,0,1,.25.6.78.78,0,0,1-.25.59.81.81,0,0,1-.6.24H570.7c-.18,0-.28.11-.28.32v3A2.42,2.42,0,0,1,568,30.74h-5c-.21,0-.32.1-.32.28V34.3a.29.29,0,0,0,.32.32h7.24a.81.81,0,0,1,.6.24.78.78,0,0,1,.25.59.76.76,0,0,1-.25.58.79.79,0,0,1-.6.25H563c-.21,0-.32.09-.32.28V40c0,.19.11.29.32.29h8.49a.8.8,0,0,1,.59.26.87.87,0,0,1,.26.61.78.78,0,0,1-.26.58.86.86,0,0,1-.59.24H563a.29.29,0,0,0-.32.33v4a.94.94,0,0,1-.26.67.91.91,0,0,1-.65.26,1,1,0,0,1-.67-.26.91.91,0,0,1-.28-.67v-4c0-.22-.09-.33-.28-.33H553a.85.85,0,0,1-.61-.24.8.8,0,0,1-.24-.58.89.89,0,0,1,.24-.61.8.8,0,0,1,.61-.26h7.6c.19,0,.28-.1.28-.29V36.56a.24.24,0,0,0-.28-.28h-6.27a.75.75,0,0,1-.56-.25.78.78,0,0,1-.24-.58.81.81,0,0,1,.24-.59.77.77,0,0,1,.56-.24h6.27c.19,0,.28-.11.28-.32V31a.25.25,0,0,0-.28-.28h-5.5a.79.79,0,0,1-.6-.26.85.85,0,0,1-.25-.61.79.79,0,0,1,.25-.59.81.81,0,0,1,.6-.24h5.5c.19,0,.28-.1.28-.32v-3.4c0-.21-.09-.32-.28-.32h-8.33a.81.81,0,0,1-.6-.24.78.78,0,0,1-.25-.59.82.82,0,0,1,.25-.6.77.77,0,0,1,.6-.27h8.33a.24.24,0,0,0,.28-.28V19.71c0-.22-.09-.33-.28-.33h-5.5a.81.81,0,0,1-.6-.24.81.81,0,0,1,0-1.17.81.81,0,0,1,.6-.24h5.5c.19,0,.28-.1.28-.29V15.18a.94.94,0,0,1,.28-.65,1,1,0,0,1,.67-.28.88.88,0,0,1,.65.28,1,1,0,0,1,.26.65v2.26c0,.19.11.29.32.29h5a2.43,2.43,0,0,1,2.39,2.38ZM563,19.38a.29.29,0,0,0-.32.33V23c0,.19.11.28.32.28h5.26a.24.24,0,0,0,.28-.28V19.71c0-.22-.09-.33-.28-.33ZM568.28,29c.19,0,.28-.1.28-.32v-3.4c0-.21-.09-.32-.28-.32H563a.29.29,0,0,0-.32.32v3.4A.28.28,0,0,0,563,29Z"/><path class="cls-4" d="M614.81,27.67a1.05,1.05,0,0,1,.69-.46,1.11,1.11,0,0,1,.85.13.86.86,0,0,1,.44.61v.2a.92.92,0,0,1-.16.53,45.82,45.82,0,0,1-5.9,6.46.68.68,0,0,0-.24.53V47.23a4,4,0,0,1-.41,2,2.25,2.25,0,0,1-1.45.95,45.41,45.41,0,0,1-7.28.32,1.46,1.46,0,0,1-1.45-1.09.66.66,0,0,1,.06-.69.69.69,0,0,1,.59-.32c1.56.06,3,.08,4.2.08,1,0,1.79,0,2.54,0a1.49,1.49,0,0,0,1-.28,1.28,1.28,0,0,0,.25-.93V37.65c0-.16-.08-.24-.22-.22a.74.74,0,0,0-.39.14Q598,45.33,583.29,49.9a2.89,2.89,0,0,1-.45,0,1.52,1.52,0,0,1-1.21-.73.88.88,0,0,1-.1-.71A.6.6,0,0,1,582,48a70.85,70.85,0,0,0,22.18-10.19.09.09,0,0,0,0-.1s0,0-.07,0l-21.62,1.62a1,1,0,0,1-.77-.25,1,1,0,0,1-.44-.84.83.83,0,0,1,.2-.53.91.91,0,0,1,.65-.36l5.37-.33c.19,0,.28-.1.28-.32V19.63a2.44,2.44,0,0,1,2.39-2.39h5.66a.43.43,0,0,0,.44-.28,24.94,24.94,0,0,0,1.42-3,1.48,1.48,0,0,1,.64-.69,1.59,1.59,0,0,1,.65-.16h.28a1,1,0,0,1,.65.52.83.83,0,0,1,0,.81c-.35.65-.82,1.49-1.42,2.51a.22.22,0,0,0,0,.16.13.13,0,0,0,.13.08h9.41a2.42,2.42,0,0,1,2.39,2.39V32.36a.11.11,0,0,0,.08.1c.06,0,.1,0,.12,0A47.8,47.8,0,0,0,614.81,27.67Zm-6.3-8.25a.29.29,0,0,0-.33-.32h-18.1c-.19,0-.29.11-.29.32v4c0,.22.1.33.29.33h18.1a.29.29,0,0,0,.33-.33ZM608.18,30c.22,0,.33-.1.33-.32v-4a.29.29,0,0,0-.33-.33h-18.1c-.19,0-.29.11-.29.33v4c0,.22.1.32.29.32Zm-18.1,1.7c-.19,0-.29.11-.29.32v4.61c0,.19.1.27.29.24,1.45-.08,3.07-.18,4.85-.32s4-.24,6.46-.41c2.24-.18,4-.32,5.34-.4a.76.76,0,0,0,.52-.2l.49-.45.52-.4a.58.58,0,0,0,.25-.49V32a.29.29,0,0,0-.33-.32Z"/><path class="cls-4" d="M634.11,19.34a.46.46,0,0,0-.45-.28h-1.82a.52.52,0,0,0-.48.24A32.75,32.75,0,0,1,628.53,23a1.09,1.09,0,0,1-.71.32,1.19,1.19,0,0,1-.79-.2.84.84,0,0,1-.32-.69.69.69,0,0,1,.2-.52,23.53,23.53,0,0,0,4.81-7.2,1.46,1.46,0,0,1,.57-.56.9.9,0,0,1,.48-.12,1.81,1.81,0,0,1,.29,0,.88.88,0,0,1,.52.44.76.76,0,0,1,0,.69c-.3.65-.59,1.24-.89,1.78a.2.2,0,0,0,0,.2.16.16,0,0,0,.14.08H643.6a.85.85,0,0,1,.63.27.82.82,0,0,1,.26.62.85.85,0,0,1-.26.63.88.88,0,0,1-.63.26h-7.27a.17.17,0,0,0-.14.08.18.18,0,0,0,0,.2,24.8,24.8,0,0,1,1.29,2.59,1,1,0,0,1-.06.75.93.93,0,0,1-.55.46,1,1,0,0,1-.75-.06,1.1,1.1,0,0,1-.5-.59A26,26,0,0,0,634.11,19.34Zm28.69-2.06a.92.92,0,0,1,.89.89.86.86,0,0,1-.27.63.85.85,0,0,1-.62.26h-9.21a.12.12,0,0,0-.12.08.12.12,0,0,0,0,.16,19.63,19.63,0,0,1,1.9,2.71.78.78,0,0,1,.05.71.91.91,0,0,1-.5.5,1.18,1.18,0,0,1-1.33-.48,20.65,20.65,0,0,0-2.39-3.44.55.55,0,0,0-.48-.24h-3.28a.52.52,0,0,0-.48.24A28.54,28.54,0,0,1,644.61,22a.09.09,0,0,0,0,.08.07.07,0,0,0,.06,0,1.22,1.22,0,0,1,.87.36,1.2,1.2,0,0,1,.39.89v1.9c0,.22.09.33.28.33h13.62a2.31,2.31,0,0,1,1.67.68,2.27,2.27,0,0,1,.71,1.7v4.12a.92.92,0,0,1-.28.69.94.94,0,0,1-.69.28.9.9,0,0,1-.68-.28.93.93,0,0,1-.29-.69V27.59c0-.19-.1-.29-.32-.29h-29.7c-.22,0-.33.1-.33.29v4.56a.86.86,0,0,1-.28.65.91.91,0,0,1-.67.28.88.88,0,0,1-.66-.28.87.87,0,0,1-.29-.65V28a2.31,2.31,0,0,1,.71-1.7,2.35,2.35,0,0,1,1.68-.68h13.25c.19,0,.29-.11.29-.33V22.74a.06.06,0,0,0,0-.06s0,0,0,0a1.15,1.15,0,0,1-.77.32,1.53,1.53,0,0,1-.77-.24l0,0a.67.67,0,0,1-.08-1.13,20.57,20.57,0,0,0,5.42-6.88,1.13,1.13,0,0,1,.56-.56,1.18,1.18,0,0,1,.53-.12,1,1,0,0,1,.24,0,.75.75,0,0,1,.56.43.7.7,0,0,1,0,.66,17.09,17.09,0,0,1-1,1.82.34.34,0,0,0,0,.2.13.13,0,0,0,.13.08ZM636,38.09c-.19,0-.29.11-.29.33v2.79c0,.22.1.32.29.32h20.45a2.43,2.43,0,0,1,2.38,2.38v6.47a1,1,0,0,1-.28.69,1,1,0,0,1-1.66-.69v-.32a.14.14,0,0,0-.16-.16H635.84a.14.14,0,0,0-.16.16v.44a1,1,0,0,1-.28.69.94.94,0,0,1-.69.28,1,1,0,0,1-.71-.28.92.92,0,0,1-.3-.69V32.76a2.29,2.29,0,0,1,.71-1.7,2.35,2.35,0,0,1,1.68-.68h18a2.35,2.35,0,0,1,1.68.68,2.29,2.29,0,0,1,.71,1.7v3a2.41,2.41,0,0,1-2.39,2.38Zm18.55-5.77a.29.29,0,0,0-.33-.33H636c-.19,0-.29.11-.29.33v3.79a.26.26,0,0,0,.29.29h18.22c.22,0,.33-.1.33-.29Zm2.34,11.15c0-.19-.11-.28-.32-.28H636c-.19,0-.29.09-.29.28v4.4c0,.22.1.33.29.33h20.57a.29.29,0,0,0,.32-.33Z"/><path class="cls-4" d="M704.4,29.36a1.34,1.34,0,0,1,.79-.28,1.16,1.16,0,0,1,.75.28.81.81,0,0,1,.32.65.78.78,0,0,1-.32.65,86.1,86.1,0,0,1-8.08,5.54c-.19.1-.23.24-.12.4a23.45,23.45,0,0,0,10.34,9.33.68.68,0,0,1,.41.53.53.53,0,0,1,0,.16.83.83,0,0,1-.2.53,1.39,1.39,0,0,1-1.06.56,1.61,1.61,0,0,1-.56-.12,23.28,23.28,0,0,1-9.22-8,41.84,41.84,0,0,1-5.78-12.83c0-.08,0-.12-.1-.12a.27.27,0,0,0-.18.08,30.34,30.34,0,0,1-4.4,2.95q-.25.17,0,.36a19.44,19.44,0,0,1,4.48,5.66,17.61,17.61,0,0,1,2,6.1,16.54,16.54,0,0,1,.12,1.94,12.87,12.87,0,0,1-.4,3.28,5.52,5.52,0,0,1-2.1,3.39,6.76,6.76,0,0,1-4,1.17c-.79,0-1.68,0-2.67-.08a1,1,0,0,1-.75-.3,1.63,1.63,0,0,1-.42-.75.63.63,0,0,1,.1-.58.49.49,0,0,1,.5-.23c1.22.08,2.16.12,2.83.12a5.1,5.1,0,0,0,3-.76,5,5,0,0,0,1.82-3.52,8.65,8.65,0,0,0,.16-1.74,14.94,14.94,0,0,0-.6-4,.13.13,0,0,0-.11-.14.19.19,0,0,0-.17.06A46.52,46.52,0,0,1,683.12,45a57.06,57.06,0,0,1-9,4.16,1.06,1.06,0,0,1-.76,0,1.41,1.41,0,0,1-.65-.53.75.75,0,0,1-.12-.4.38.38,0,0,1,.08-.24.54.54,0,0,1,.44-.45,50.52,50.52,0,0,0,9.34-4.12,36.61,36.61,0,0,0,7.68-5.5.4.4,0,0,0,.08-.48,16.77,16.77,0,0,0-1.54-2.79.25.25,0,0,0-.4-.08,47.31,47.31,0,0,1-5.9,3.68,67.38,67.38,0,0,1-6.71,3.15,1.59,1.59,0,0,1-.48.08,1.12,1.12,0,0,1-1-.61.65.65,0,0,1-.11-.6.67.67,0,0,1,.43-.45,50.64,50.64,0,0,0,6.89-2.91,36.26,36.26,0,0,0,5.84-3.59.29.29,0,0,0,0-.45,16.9,16.9,0,0,0-1.94-1.94.49.49,0,0,0-.53-.08,64,64,0,0,1-9.21,3.8,2.59,2.59,0,0,1-.48,0,1.29,1.29,0,0,1-1.06-.61.65.65,0,0,1-.08-.62.63.63,0,0,1,.45-.43,45.61,45.61,0,0,0,14.06-6.18s0-.06,0-.12,0-.08-.06-.08h-9.17a.94.94,0,0,1-.67-.26.88.88,0,0,1-.26-.65.87.87,0,0,1,.26-.65.9.9,0,0,1,.67-.26h22a.9.9,0,0,1,.67.26.87.87,0,0,1,.26.65.88.88,0,0,1-.26.65.94.94,0,0,1-.67.26h-7.59a.2.2,0,0,0-.19.1.17.17,0,0,0,0,.18,39.91,39.91,0,0,0,3,7.68.26.26,0,0,0,.41.08A69.31,69.31,0,0,0,704.4,29.36ZM676,19.75a.28.28,0,0,0-.32.32v4.4a1,1,0,0,1-1.66.69.9.9,0,0,1-.28-.69v-4.2a2.32,2.32,0,0,1,.7-1.67,2.29,2.29,0,0,1,1.68-.71h13.06a.26.26,0,0,0,.28-.29V15a1,1,0,0,1,.3-.71,1,1,0,0,1,.73-.3,1,1,0,0,1,.73.3,1,1,0,0,1,.3.71V17.6a.25.25,0,0,0,.29.29h13.37a2.26,2.26,0,0,1,1.68.71,2.29,2.29,0,0,1,.71,1.67v4.16a1,1,0,0,1-.31.71.93.93,0,0,1-.7.3.87.87,0,0,1-.69-.3,1,1,0,0,1-.28-.71V20.07a.29.29,0,0,0-.33-.32Z"/></svg>