<svg id="Layer_1" data-name="Layer 1" xmlns="http://www.w3.org/2000/svg" viewBox="0 0 120 120"><defs><style>.cls-1{fill:#c4995c;}</style></defs><title>web</title><path class="cls-1" d="M102,31.12H86.25V20.62a10.46,10.46,0,0,0-10.5-10.5H44.25a10.46,10.46,0,0,0-10.5,10.5v10.5H18a10.47,10.47,0,0,0-10.5,10.5V99.38A10.47,10.47,0,0,0,18,109.88h84a10.47,10.47,0,0,0,10.5-10.5V41.62A10.47,10.47,0,0,0,102,31.12ZM44.25,20.62h31.5v10.5H44.25ZM102,99.38H18V88.88h84Zm0-26.25H18V41.62H33.75v10.5h10.5V41.62h31.5v10.5h10.5V41.62H102Z"/></svg>